<svg id="Calque_1" data-name="Calque 1" xmlns="http://www.w3.org/2000/svg" viewBox="0 0 2501 889">
	<defs>
		<style>
			.cls-1,.cls-2{fill:#a6c8ed;}.cls-2,.cls-3{stroke:#a6c8ed;stroke-linecap:round;stroke-linejoin:round;stroke-width:2px;}.cls-3{fill:none;}.cls-4{fill:#3a4797;}.cls-5{fill:#c0e1f2;}.cls-6{fill:#303e87;}.cls-7{fill:#fff;opacity:0.58;isolation:isolate;}.cls-8{fill:#8ec2e8;}
		</style>
	</defs>
	<path class="cls-1" d="M2472,1155.18H-29L-6,441.75c27.23,13.67,52.79,27.19,73.79,49.48S102,546,93.54,575.68c-4,14.08-12.5,26.57-16.06,40.78-7.74,30.93,9,62.15,25.16,89.53,7.72,13.08,15.78,26.56,28,35.38,9.36,6.74,20.77,10.43,29.28,18.24,23.06,21.18,15.19,61.41,33.43,87,21.86,30.63,72.69,23.66,97-5s28-69.68,26.2-107.47-7.9-76.27.94-113c12.92-53.7,56.33-97.21,62.85-152.1,2.86-24.17-1.77-48.7.26-73s13.36-50.49,36-58.56c16.74-6,35.27-.48,51.51,6.78,39,17.43,76.5,52,77,94.57A1.71,1.71,0,0,0,548,440c16.46-16.8,47.56-12.16,65.28,4.46,18.89,17.7,26.93,43.95,35.75,68.47s20.69,50.24,43.3,62.64c7.83,4.31,16.73,6.84,23.53,12.7,10.92,9.41,13.82,24.85,15.42,39.53a4,4,0,0,0,4.19,3.61c15.54-.8,31.12,10.09,36.07,25.07a4.12,4.12,0,0,0,5.78,2.41c69.24-35.06,123.89-99,148.24-173.6,9.59-29.39,15.13-61.22,33.71-85.76,13.3-17.56,32.14-29.76,50.58-41.59,20.82-13.37,42.29-27,66.49-31.67,61.35-11.85,118.31,36.69,153.38,89.2,14.29,21.38,27.2,47.69,19,72.15-4.16,12.38-13.45,22.95-15.07,35.92-2.24,17.94,10.61,33.82,22.62,47.16l63.31,70.4c13.69,15.22,29.3,31.46,49.5,33.44,24.55,2.4,51.89-16.71,72.07-2.32,8,5.74,12.25,15.45,18.66,23,12.44,14.67,32.09,20.23,50.54,25.06,40.81,10.68,82.84,21.45,124.63,16,21-2.75,41.9-9.58,62.84-6.58,48.87,7,76.4,62.48,121.8,82.13,51,22.1,110.48-7.1,149.59-47.09s66.84-90.74,108.56-127.9c21-18.69,45.44-33.9,62.25-56.54,18.51-24.93,29.91-60.26,59.52-68.63,15.26-4.32,31.48.17,47.31-.42,35.17-1.29,64.12-26.74,93.6-46.3s56-25.21,96.1-23.17Z" transform="translate(29.03 -266.18)" />
	<g id="MKg6fT.tif">
		<path class="cls-1" d="M553.33,417.26c-1.24-1.68-.76-4.41,1.08-4.9a12.52,12.52,0,0,0,6.23-4.17,4.68,4.68,0,0,1,3.86-1.67,7.48,7.48,0,0,0,5.35-2.11,7.25,7.25,0,0,1,5.11-2.24h.78l.19-.55a37.88,37.88,0,0,0-1.62-3.81c-.52-1-1.36-1.74-2-2.66a1.71,1.71,0,0,0-2.17-.79,2.34,2.34,0,0,0-1.31,2.27,3.57,3.57,0,0,1-1.57,3.22,2.34,2.34,0,0,1-3,.09,6.12,6.12,0,0,1,.68-4.23c1.58-2.94.7-4.48-1.16-6.46a17.62,17.62,0,0,0-2.51-1.92,6.08,6.08,0,0,0-4.93,4.09,1.31,1.31,0,0,0,.5,1.78,7.63,7.63,0,0,1,1.85,1.54,4.45,4.45,0,0,1,.49,4.79,29.67,29.67,0,0,1-4.82,7.66c-.55.66-1.11,1.36-2,.52-.54-2.23.69-4.22,1.27-6.33a31.08,31.08,0,0,0,1.17-4.21c.24-2-.57-3-2.85-3.51a5.34,5.34,0,0,0-6,2c.24.9.52,2,.81,3.07a23.39,23.39,0,0,1,.69,2.71c.14,1,.06,2.13-1.1,2.53s-1.7-.43-2.16-1.85a11.6,11.6,0,0,1-.4-2.72c-.15-1.68-.22-1.83-2-2.62a33.9,33.9,0,0,0-3.57,2.46c-1,.86-.91,1.86.18,2.4a7,7,0,0,1,3,3.63,16.65,16.65,0,0,0,1.11,2.19,3.56,3.56,0,0,0,1.4,1.47c2,.77,2.63,2.22,2.37,4.37s-.41,4.35-.67,6.52a5.32,5.32,0,0,1-.57,1.34c-1.77-.19-2.16-1.5-2.36-2.88-.28-1.9-1.94-1.87-3.1-2.35-.95-.39-1.94.36-2.61,1.27-1.5,2.08-1.1,3.88,1.23,5.5.65.44,1.33.82,2,1.26a5.49,5.49,0,0,1,2,6,24,24,0,0,0-.88,3.51c-.33,2.47,1,4.14,2.57,5.62l5.7,2.53c2.36,0,2.43-1.05,2.4-2.7a16.44,16.44,0,0,0-.83-3.81c-.26-1-.64-1.89-1-2.84,1.83-1.65,3.63-1,5.33-.57,1.9.48,3.65,1.22,5.51-.54a3.35,3.35,0,0,1,3.34-.57,3.71,3.71,0,0,0,1.75,0c.92-.19,1.07-1,.93-1.76a3.77,3.77,0,0,0-5-3c-.72.26-1.4.66-2.13.88-1.33.38-2.68.68-3.88,1-1.5-2.16-1.13-3.68.87-4.56a17.74,17.74,0,0,1,9.75-1.73,2.66,2.66,0,0,1,2.32,1.53c1.41,3.41,4.34,3.55,7.24,3.76a11.23,11.23,0,0,0,3.56-.25,10.93,10.93,0,0,0,2.56-1.53,31.23,31.23,0,0,0-.84-3.07c-.8-2-2.39-2.51-4.12-1.4-1,.68-2,1.6-3.36,1.17-.87-.27-1.71-.63-2.57-.95l-.08-.53a12.37,12.37,0,0,1,1.16-1.23c1.18-1,2.37-2,3.62-2.83a5.68,5.68,0,0,1,2.15-1c4-.69,5.06-3.43,2.65-6.81a8.44,8.44,0,0,0-3.72-3.08,2.47,2.47,0,0,0-3.52,1.62c-.35.92-.4,2-.69,2.92-.69,2.34-1.63,4.5-3.68,6-1.15.83-2.16,1.17-3.58,0,.39-.6.8-1.18,1.17-1.79s.59-1.33-.1-1.93c-1.56-1.35-4.92-1-6,.83a12.32,12.32,0,0,0-.89,2.65c-.14.39-.33.75-.56,1.29a10.81,10.81,0,0,1-5.78.56" transform="translate(29.03 -266.18)" />
	</g>
	<g id="MKg6fT.tif-2" data-name="MKg6fT.tif">
		<path class="cls-1" d="M737.11,626.83c-1.24-1.68-.76-4.41,1.07-4.9a12.48,12.48,0,0,0,6.23-4.17,4.7,4.7,0,0,1,3.87-1.67,7.51,7.51,0,0,0,5.35-2.11,7.23,7.23,0,0,1,5.1-2.24h.78l.2-.55a40.34,40.34,0,0,0-1.62-3.81c-.53-1-1.36-1.74-2-2.66a1.71,1.71,0,0,0-2.18-.79,2.33,2.33,0,0,0-1.3,2.26,3.6,3.6,0,0,1-1.57,3.22,2.34,2.34,0,0,1-3,.1,6.14,6.14,0,0,1,.68-4.24c1.58-2.93.7-4.48-1.15-6.45a17.15,17.15,0,0,0-2.52-1.92,6.07,6.07,0,0,0-4.92,4.08,1.3,1.3,0,0,0,.5,1.78,7.85,7.85,0,0,1,1.84,1.54,4.44,4.44,0,0,1,.49,4.79,29.8,29.8,0,0,1-4.81,7.67c-.56.65-1.11,1.36-2.06.52-.53-2.23.7-4.22,1.28-6.33a29.4,29.4,0,0,0,1.16-4.22c.24-2-.56-3-2.84-3.5a5.35,5.35,0,0,0-6,2c.24.9.53,2,.81,3.07a21.53,21.53,0,0,1,.69,2.71c.14,1,.06,2.13-1.1,2.53s-1.7-.43-2.16-1.85a12.84,12.84,0,0,1-.4-2.72c-.14-1.68-.22-1.83-2-2.62a32.9,32.9,0,0,0-3.57,2.46c-1,.86-.91,1.86.17,2.4a7,7,0,0,1,3,3.63,19.53,19.53,0,0,0,1.11,2.19,3.69,3.69,0,0,0,1.4,1.47c2,.76,2.63,2.21,2.37,4.37s-.41,4.35-.66,6.51a6,6,0,0,1-.57,1.35c-1.78-.19-2.16-1.5-2.37-2.88-.28-1.9-1.93-1.88-3.09-2.35-.95-.39-1.95.36-2.61,1.27-1.51,2.08-1.11,3.88,1.23,5.5.64.44,1.32.82,2,1.25a5.52,5.52,0,0,1,2,6A27.16,27.16,0,0,0,725,643c-.33,2.48,1,4.15,2.58,5.62l5.69,2.54c2.37,0,2.43-1.05,2.4-2.71a16.36,16.36,0,0,0-.83-3.8c-.26-1-.63-1.89-1-2.85,1.82-1.64,3.62-1,5.32-.57,1.9.49,3.66,1.23,5.51-.53a3.35,3.35,0,0,1,3.35-.57,3.84,3.84,0,0,0,1.75,0c.91-.19,1.06-1,.92-1.76a3.75,3.75,0,0,0-5-3c-.72.26-1.41.66-2.14.87-1.33.39-2.68.69-3.88,1-1.5-2.16-1.12-3.68.87-4.57a17.83,17.83,0,0,1,9.75-1.72,2.65,2.65,0,0,1,2.32,1.52c1.42,3.41,4.35,3.56,7.24,3.77a11,11,0,0,0,3.57-.26,10.67,10.67,0,0,0,2.55-1.52,28,28,0,0,0-.84-3.07c-.8-2-2.38-2.51-4.12-1.4-1,.68-2,1.59-3.36,1.17-.87-.28-1.71-.63-2.57-.95l-.07-.54a13.35,13.35,0,0,1,1.15-1.22c1.19-1,2.37-2,3.63-2.84a5.55,5.55,0,0,1,2.15-1c4-.68,5-3.42,2.64-6.8a8.41,8.41,0,0,0-3.71-3.08,2.48,2.48,0,0,0-3.53,1.62c-.35.92-.4,2-.68,2.92-.7,2.34-1.64,4.5-3.69,6-1.15.83-2.16,1.16-3.57,0,.39-.59.8-1.17,1.16-1.78s.6-1.33-.09-1.93c-1.56-1.35-4.92-1-6,.82a13.31,13.31,0,0,0-.89,2.65c-.13.39-.33.76-.56,1.3a10.8,10.8,0,0,1-5.78.56" transform="translate(29.03 -266.18)" />
	</g>
	<g id="MKg6fT.tif-3" data-name="MKg6fT.tif">
		<path class="cls-1" d="M785.19,653.94c-1.7-.17-3-1.94-2.17-3.31a10.32,10.32,0,0,0,1.29-6,4,4,0,0,1,1.33-3.23,6.42,6.42,0,0,0,2-4.36,6.18,6.18,0,0,1,1.74-4.29l.47-.47-.21-.41a30,30,0,0,0-3.14-1.1c-.87-.22-1.8-.13-2.69-.27a1.51,1.51,0,0,0-1.74.88,1.77,1.77,0,0,0,.53,2,2.74,2.74,0,0,1,.91,2.7,2.06,2.06,0,0,1-1.71,1.84,4.54,4.54,0,0,1-2-2.71c-.75-2.55-2.16-2.86-4.39-2.83a15.22,15.22,0,0,0-2.59.47,4.92,4.92,0,0,0-.57,5.18,1,1,0,0,0,1.32.67,6.64,6.64,0,0,1,2-.27,3.34,3.34,0,0,1,3,2.32,22.57,22.57,0,0,1,1.55,7.06c.05.7.12,1.41-.91,1.52-1.6-.89-2-2.71-2.88-4.21a22.72,22.72,0,0,0-1.73-3c-1-1.23-2-1.27-3.69-.2a4.62,4.62,0,0,0-2.43,4.71l2.24,1.19a15.39,15.39,0,0,1,2,1.06c.67.47,1.26,1.12.8,2s-1.25.78-2.34.29a9.46,9.46,0,0,1-1.8-1.24c-1-.83-1.17-.87-2.7-.22a29.45,29.45,0,0,0-.7,3.49c-.09,1.07.53,1.56,1.48,1.2a5.74,5.74,0,0,1,3.86.18,14.24,14.24,0,0,0,1.91.53,3,3,0,0,0,1.67,0,2.9,2.9,0,0,1,3.91,1c1.09,1.34,2.25,2.62,3.34,4a4.42,4.42,0,0,1,.44,1.07c-1.16,1-2.14.48-3-.14-1.26-.87-2.22.14-3.18.57a2,2,0,0,0-.82,2.26c.3,2,1.57,2.78,3.88,2.26.64-.14,1.26-.35,1.89-.5a4.27,4.27,0,0,1,4.61,2.09,18.27,18.27,0,0,0,1.49,2.44c1.22,1.54,3,1.67,4.75,1.51l4.82-2c1.4-1.41.84-2-.13-2.91a12.45,12.45,0,0,0-2.67-1.58c-.71-.36-1.46-.64-2.21-1,.14-2,1.57-2.72,2.83-3.51s2.86-1.53,2.95-3.6a3,3,0,0,1,1.66-2.32,3.42,3.42,0,0,0,1-1.06c.43-.66.06-1.19-.46-1.52a3.23,3.23,0,0,0-4.67,1.38c-.28.57-.46,1.2-.77,1.76-.56,1-1.19,2-1.73,2.87-2.12-.28-2.78-1.34-2.1-3a15.71,15.71,0,0,1,4.78-6.79,2.3,2.3,0,0,1,2.25-.56c2.79,1,4.61-.68,6.44-2.3a10.2,10.2,0,0,0,2-2.28,9.38,9.38,0,0,0,.63-2.36,19.63,19.63,0,0,0-2.26-1.17,2.21,2.21,0,0,0-3.23,1.71c-.24,1-.29,2.09-1.32,2.66-.68.37-1.38.68-2.07,1l-.35-.25a10.29,10.29,0,0,1,0-1.36c.14-1.24.28-2.49.52-3.72a4.78,4.78,0,0,1,.72-1.81c2-2.76,1-4.9-2.34-5.3a7.2,7.2,0,0,0-4,.56,2.09,2.09,0,0,0-1.16,3c.32.72.89,1.31,1.27,2a8.11,8.11,0,0,1,1.25,5.47,2.2,2.2,0,0,1-2.12,2.14c-.11-.56-.21-1.13-.34-1.68s-.41-1.08-1.16-1c-1.7.2-3.47,2.43-3.09,4.06a10.17,10.17,0,0,0,1,2,9.84,9.84,0,0,1,.41,1,9.56,9.56,0,0,1-3.1,3.78" transform="translate(29.03 -266.18)" />
	</g>
	<g id="qyG0xV.tif">
		<path class="cls-2" d="M692.22,560.09a15.82,15.82,0,0,0,4.08-10.92,8.79,8.79,0,0,1,.55-3.15c1.09-3.06,3.38-5,6-6.51a15.48,15.48,0,0,0,7.91-10.12,13.68,13.68,0,0,1,6-8.51,12.93,12.93,0,0,1,2.77-1.11l.08,1.19c-1.22,2.9-2.48,5.78-3.65,8.69a7.63,7.63,0,0,0-.39,2.24c-.32,4.88-3.32,8-7.11,9.94-5.1,2.62-7,6.68-7.09,12.15-.1,4.34-2.77,7.41-5.56,10.34-.1.1-.33.07-.68.12-2.11-4.06-5.71-6.37-10.12-7.61a16.85,16.85,0,0,0,2.22-11.11c-.39-2.93,1.3-5.53,3.5-7.56.91-.85,1.86-1.65,2.81-2.43a16.05,16.05,0,0,0,6.24-11.05c.46-4.42,3.27-7.23,6.47-9.74.27-.21.75-.11,1.13-.16l.22,1.29a34.8,34.8,0,0,0-3,13.07c0,3.82-2.85,6.62-5.89,8.66-4.24,2.86-6.36,6.68-5.79,11.79a13,13,0,0,1-2.57,9.22" transform="translate(29.03 -266.18)" />
		<path class="cls-2" d="M683.26,556.34c.22-2,.54-4,.61-5.93,0-1.17-.39-2.33-.42-3.52a10.84,10.84,0,0,1,4.2-9.21,16.9,16.9,0,0,0,1.9-1.68c2.67-2.93,4.49-6,4-10.35-.54-4.61,1.43-9,2.49-13.51l-1,.92c-3.58,2.25-6.08,5.48-6.38,9.76a18.84,18.84,0,0,1-6.94,13.84c-3.11,2.64-4.86,6.28-3.77,10.62a14.23,14.23,0,0,1-.77,8.12,9.51,9.51,0,0,0-.28,1.41" transform="translate(29.03 -266.18)" />
		<path class="cls-2" d="M697.79,572.45l4.57-3.25,4-4.59c1.27-1.65,2.17-2.41,2.53-3.3A19.21,19.21,0,0,0,710,558c.89-4.78,2.7-8.81,7.49-10.67a16.43,16.43,0,0,0,2.88-1.26c2.4-1.52,5-3.23,5.58-6.19.87-4.26,2.9-7.82,5.23-11.32a15.87,15.87,0,0,0,1-2.25l-1-.44a16,16,0,0,0-9.49,9.78,13.82,13.82,0,0,1-7.76,8,16.8,16.8,0,0,0-6,4,8.43,8.43,0,0,0-2.35,5c-.63,6.35-4.33,10.61-9.2,14.05" transform="translate(29.03 -266.18)" />
		<path class="cls-2" d="M695.12,564.44l.49.21c.76,2.73,1.53,5.46,2.18,7.8a26.5,26.5,0,0,0-.52,3.09,6.62,6.62,0,0,1-1.38,4.09L669.74,562c1.79-3,4.72-4.3,7.68-5a36.27,36.27,0,0,1,7.58-.22S692.84,559.16,695.12,564.44Z" transform="translate(29.03 -266.18)" />
		<path class="cls-2" d="M696.55,570.06l-5.78-3.44" transform="translate(29.03 -266.18)" />
		<path class="cls-2" d="M697,574.93l-5.2-3" transform="translate(29.03 -266.18)" />
	</g>
	<path class="cls-1" d="M143.7,656.49l1.13,1A1.85,1.85,0,0,1,144,660c-2.42,1.2-2.56,3-1.5,5.26.28.63.5,1.28.72,1.94.55,1.54,1.25,2.26,3,1.24,3.29-1.93,3.33-1.84,4.37,1.85a10.36,10.36,0,0,0,.43,1,2,2,0,0,1-.2,1.55c-1.81,1.55-4.06,1.61-6.23,1.88-2.49.31-4.38,1.36-5.38,3.88-1.23,3.1-.77,4.2,2.4,5,1,.24,2,.39,2.06,1.68s-.92,1.71-1.88,1.88c-1.75.31-2.63,1.38-3.49,2.92-1,1.81-3.24,1.51-4-.38-.54-1.33-.23-3.16-2-3.7a9.76,9.76,0,0,0-6.13.38c-2.34.82-3.86,2.25-5.9,5.32l.23-.17c1.13-1.06,1.94-2.79,3.91-2.13a2.45,2.45,0,0,1,1.7,2.25c.15,2.11-1.31,3.09-2.79,4-.62.4-1.29.72-1.91,1.13-1.23.8-2.32,1.82-1.1,3.31,1.08,1.32,2.46.76,3.6-.14a5.11,5.11,0,0,0,1.67-4c.15-2.39.51-4.81,2-6.7,1.09-1.35,2.63-2.62,4.43-1.28s.83,2.82-.38,4.08c-.5.53-1.16,1-.32,1.83,1.57,1.43.12,2.7-.25,4a1.41,1.41,0,0,0,1.9-.73c2.22-3.91,6.74-5.23,9.31-8.74a1.63,1.63,0,0,1,2.61-.08c1.36,1.48,2.17,1.28,2.81-.56s1-3.75-1.42-4.63c-1.07-.39-2.19.09-3.28,0-1.51-.13-2.64-.82-2.68-2.5s1.05-2.43,2.64-2.37a9.75,9.75,0,0,0,3.27-.29,2.94,2.94,0,0,1,1.53,0c2.56.37,6-.35,4.83,4.6,1.1-.91.53-2.1,1.23-2.77a1.83,1.83,0,0,1,1.45-.44,3.91,3.91,0,0,0,2.16-.22c1-.45,2.09-1.27,2.88.15s-.1,2.35-1.08,3.23c-.72.64-1.64,1.13-1.93,2.23.52,1,1.25.25,1.86.17a1.78,1.78,0,0,1,2.12,1,2,2,0,0,1-.45,2.08c-.46.6-1.09,1-1.57,1.58-.93,1.09,0,3.35-2,3.65s-1.9-2-2.88-2.9c-1.21-1.19-2-.38-2.39.89-.51,1.56.9,3.72-1.21,4.75-1.65.8-3.36-.43-5.07-.23-.36.05-.73,0-1.1.06a6.52,6.52,0,0,0-4.24,2c1.53-.24,2.51-2.24,4.31-1.62,1.88,1.83-.5,3.64,0,5.46a2.13,2.13,0,0,1-.46,1.5,32.1,32.1,0,0,0-16.87,4.79c-1.57,1-3.86.5-5.64,1.47-1.15.62-2.22,1.48-1.54,2.94s2,1.14,3.21.65a9.49,9.49,0,0,0,3.44-2.74c2.06-2.33,3.47-2.19,4.42.67.84,2.55,2.12,1.75,3.2.68a40.81,40.81,0,0,0,5.06-5.44c1.18-1.7,2.64-2.89,4.4-.71,1.12,1.39,1.86.62,2.67-.23a7.78,7.78,0,0,0,2.3-5c.07-1.27.21-2.92,1.58-3.11,4-.56,7.61-2.32,11.33-3.76,1.18-.46,1.5.38,1.66,1.34a4,4,0,0,1-3.7,4.91c-1.91.16-3.65.49-4.85,2.17-1.38,1.93-.77,3.36,1.52,3.69s3.73-1.11,4.65-3c1.34-2.68,2.52-5.39,4.81-7.47,1.13-1,1.07-2.32-.75-2.71-2.91-.61-2.67-2.39-1.7-4.5.26-.57.39-1.19.61-1.77.41-1.11-.06-2.9,1.42-3.16s1.85,1.3,2.17,2.52c.24.92.73.79,1.36.42s1.68-.32,1.85.46c.41,1.89.93,3.41,3.16,3.69.5.06.43,1.14.1,1.69-.7,1.16-1,1.85.53,2.85s.1,1.93-.88,2.42c-1.75.89-3.72,1.33-5.28,2.61-.68.56-1.43,1.39-.77,2.22s1.52.1,2.15-.5a4.2,4.2,0,0,0,.68-.89c.8-1.36,1.77-2.52,3.52-2.06,1.94.5.62,2.34,1,3.39,1,.13,1.56-.41,2.27-.54,1-.18,2-.29,2.61.78a1.82,1.82,0,0,1-.82,2.55,4.87,4.87,0,0,0-1.66,2.41c-.62,1.61-1.71,2.28-3.09,1-2.35-2.26-3.35-.33-4.49,1.35a3.23,3.23,0,0,1-3.74-.38,2.59,2.59,0,0,0-3.63.21c-1.37,1.25-1.29,2.26.52,3,2.79,1.14,4.46-1.29,6.62-2.12,2,.94,1.71,4.16,4.3,4.52.19,0,.28.4.29.65a2.29,2.29,0,0,1-2,2.33c-1.64.44-2.64,4-4.46,1.88-2.5-2.9-5.88-1.87-8.73-2.87-1.84-.64-3.42-.67-4-2.85-.71-2.8-2.44-3.35-4.7-2a61.67,61.67,0,0,1-7.36,3.36c-.89.4-1.83.91-1.65,2.18a1.38,1.38,0,0,0,1.24,1.2c1.22.22,1.86-.55,2.14-1.58.68-2.48,1.76-3.6,4.1-1.6.51.44,1.16.06,1.74-.15,1.42-.54,2.4-.29,2.55,1.49a4.69,4.69,0,0,0,.84,2c1.42,2.38,1,3.15-1.76,3.5-1.13.14-2.55-.51-3.17,1.11a.87.87,0,0,0,.35,1c1.42.91,2.57,0,3.71-.7a10,10,0,0,0,2.63-2.59c.76-1,1.22-2.79,3-2,1.59.73,1.09,2.3,1,3.79,1.4-.09,2.09-1.14,2.95-1.93s1.66-2.18,3.05-1.49A4.27,4.27,0,0,1,168,722.7c.19,1.64-1.45,1.73-2.49,2.28a.94.94,0,0,0-.69,1,5.12,5.12,0,0,0,6.07-1.82,4.41,4.41,0,0,1,3-2c.83-.08,1.9.64,1.58,1.06-2.22,2.93,3.9,4.21,1.27,6.84-1,1-2.37,1.4-3.34,2.66s-2.42.24-3.52-.6c-1.43-1.08-2.72-1.75-3.82.52-1.43,3-2.77,1.69-3.77-.33-1.24-2.52-3.08-3.49-5.71-2.69-1,.3-2.46.25-2.41,1.78.05,1.16,1.21,1.44,2.17,1.71.35.1.72.13,1.08.21,2,.49,3.23,1.41,1.78,3.66-.52.8-.89,1.64,0,2.31,1.08.81,1.87,0,2.43-.83,1.14-1.73,2.17-3.53,4.64-2.07a.51.51,0,0,0,.64-.18c.73-.9,1.36-3.15,2.35-2.26,1.85,1.68,4.76,1.23,6.06,3.61a3.38,3.38,0,0,1-2.94,2.49c-2.53.37-4.84.72-5.21,4.11-.12,1.11-1.48,1.08-2.5.94s-1.85-.79-2.77.1c-.1,1.29,1.13,1.49,1.74,2.19s1.42,1.55.79,2.63a2.23,2.23,0,0,1-2.87,1.07c-2.73-1.3-5.8-2.32-6.37-6.08a5.85,5.85,0,0,0-2.67-4.3,5.65,5.65,0,0,1-2.21-2.93c-.95-2.54-1.73-5-5.42-3.83-1.7.52-1.93-1.44-2.07-2.85a9.16,9.16,0,0,0-9.95-8.4c-.76.06-1.54.13-1.73,1s.42,1.4,1.08,1.79a8,8,0,0,0,4.64.7c2.06-.08,3.18.64,2,2.92a4.11,4.11,0,0,0-.79,2.08c.14,2.44-1,3.42-3.45,2.87,1.76,3.88,3.57,4.53,6.6,2.47,2.07-1.42,3.74-2.2,4.48,1.26.22,1.08,1.28,1,2.13,1,2.26,0,3.1,1.1,2.64,3.35a4.79,4.79,0,0,0,.3,2.21c.23.85.49,1.78-.43,2.37a2,2,0,0,1-2.4-.25c-1.83-1.54-5.08-.25-6.2-3.32-.19-.51-1.17-.48-1.52.21s.21,1.23.76,1.46c2.28.94,3.14,2.24.83,4.37,1.52.13,2.09-.85,2.91-1.32s2.66-.71,2.6-.12c-.36,3.53,5.05,2.15,4.37,5.68a2.42,2.42,0,0,1-.24.7c-.76,1.28-8.53,2.66-9.72,1.68-2.45-2-4.62-4.42-7.58-5.76-1-.47-1-1.57-1.09-2.61-.12-3-.47-5.65-4-6.62-1.72-.47-1.55-2.25-1.23-3.84,1-5,0-7.44-4.52-10.25-3.36-2.11-6.51-1.19-10.31,1.4,2.56,0,5.14-3,6,1.08.09.46,1.07-.11,1.62-.29,1.49-.49,3-.74,3.85,1,1,2.07-1.06,2.39-2.19,3.34,1.29.93,3.66,1.25,2.17,3.74,2.81.66,2.41,4.15,4.54,5.42,1.14.68,2,1.65,1.52,3.07-.63,1.77-2.08.56-3.16.75-2.09.37-3.59.11-4.07-2.37-.26-1.28-1-1.94-2.44-1.42-1.16.43-2.72.09-3-.8-1.1-4.07-4.81-4.59-7.61-6.36L92.89,720.48a6.34,6.34,0,0,1-2.14-3,3.57,3.57,0,0,0-2.13-2.45c-2.62-.71-5-1.45-4.56-5.09.09-.66-.67-1.12-1.28-1.1-3.07.08-3.35-2.07-3.64-4.43-.12-1-.85-1.93.27-2.66a1.84,1.84,0,0,1,2.66.37c1.41,2.55,5.19,1.07,6.23,4.05,1.91-.79,3.53-.74,4.09,2,1.09-1.42.85-3.69,3-3.13,1.82.48,1.9,2,1.76,3.63,0,.66-.69,1.76.32,1.91,3.63.51,1.5,2.88,1.87,4.61a8.24,8.24,0,0,0,.76-7.33,8.86,8.86,0,0,0-11.67-5.12c-2.06.9-3.66,1.14-4.77-1.46-1-2.41-3.45-2.27-5.4-2-2.15.24-3.85.38-4.79-2.07-.32-.84-1.25-1.22-2-1.6-4.95-2.6-4.95-7.2-4.65-11.93a2.11,2.11,0,0,1,1.72-2.14A1.86,1.86,0,0,1,71,682.62c.23.58.23,1.65.66,1.68,5.45.36,2.66,3.75,2.11,6.68,1.83-2.73,3.21-2.2,4.53,0,.37.61,1.11,1.2,1.74.25a1,1,0,0,0-.57-1.55c-3.39-.64-2.15-4.7-4.42-6.17a1.3,1.3,0,0,1-.11-1.74c1.7-1.57,4-.34,5.92-1.11,1.11-.43,1.7.76,1.9,1.8a2.91,2.91,0,0,0,2.76,2.79c2.47.43,1.36,2.41.67,3.83-1.25,2.6-.63,4.66,1.68,6.13.74.48,1.89,1.09,1.75-1-.1-1.54,4.76-5,6.08-4.5,1.14.39,1.23,1.46,1.31,2.47a7.16,7.16,0,0,0,1.61,4.5c.52.55,1.19,1,1.95.48.58-.4.5-1.06.42-1.7-.64-5.62-4.41-8.93-10-8.67-1.92.09-3.22-.44-2.89-2.71s-.94-3-2.66-3.3a10.15,10.15,0,0,1-6.12-3.1,3.29,3.29,0,0,0-2.71-1c-3.25.22-5.19-1.68-7-4.09-1.06-1.45-1.76-3-.35-4.36s2.43.08,3.47.92c.46.37.84.94,1.59.74.79-.81.2-1.61-.12-2.37-.75-1.78-.65-3.17,1.43-3.84,1.78-.57,1.92-2.09,1.88-3.65-.06-1.92-.09-3.81,1.77-5,2.76.6,2.25,4.31,4.71,5.23.15.06.22.61.09.69-3,1.84-.26,6-3.07,7.91-.77.54-1.47,1.59-.59,2.59s1.73.23,2.5-.45c1.82-1.6,2.85-.55,3.6,1.22A6.21,6.21,0,0,0,88,674.89c.83.71,1.5.66,2.06-.39,1.19-2.29.16-5.7-2.08-6.77-3.49-1.68-3.52-1.7-1.48-4.82a2.06,2.06,0,0,0-.5-3c-1.89-1.62-2.8-3.16-.33-5.1.7-.54.29-1.7.68-2.48.71-1.4,1.74-1.87,2.84-.5.6.76.74,1.9,2.12,1,.93-.58,2.16-1.16,2.95.07s.16,2.7-.78,3.75c-1.87,2.06-2.4,4.27-.84,7.26,1.26-1.67.66-5.82,4.33-3.55,4.87,3-1.35,4.81-.53,7.63,1.15-.38,2.73-1.33,3.74.43,1.11,1.92-.72,2.63-1.61,3.68a8.37,8.37,0,0,0-2.4,5.34c0,.8.38,1.54,1.27,1.54s1.06-.84,1-1.62-.3-1.48-.3-2.23c0-2.14,1-3.37,2.93-2,1.36,1,4.22-.56,4.11,2-.1,2,1,3.15,1.47,4.71.42,1.4-1,1.78-2,2.32s-1.66,1.15-1.34,2.37a1.42,1.42,0,0,0,1.62,1.21c1.18-.19,1.45-1.26,1.66-2.23a53,53,0,0,1,1.87-7.65c.93-2.45.32-4.23-2.55-4.52-2.1-.22-2.67-1.46-3.52-3.45-1.18-2.77-1-6.47-4.24-8.22a1.57,1.57,0,0,1-.56-2.3,14.41,14.41,0,0,0,2-4c.33-.87,1.61-1.7,2-1,1.15,2.33,3.87,1.78,5.26,3.45.08,1.81-1.6,3.08-1.42,4.92.13,1.26.34,2.51,1.46,3.26.77.51,1.4,0,1.84-.64.81-1.21,1.21-2.49.07-3.73s-1.81-2.33-1.29-4c1.69-1.59,3-3.11.3-5.07-1.17-.87-.73-2,.31-2.81a6.21,6.21,0,0,0,2.16-2c.52-1.06,1.13-2.09,2.5-1.58s1.25,1.7,1.17,2.87c0,.61-.37,1.2-.12,1.88,1.09.5,2.66-1.35,3.47.59.72,1.72-.2,2.87-1.47,3.84a3.26,3.26,0,0,0-.76.81c-.48.77-1,1.73,0,2.3s1.57-.35,2-1.11a12.93,12.93,0,0,0,1.19-3.94c.67-3,.68-3,3.48-2,.64.25.85-.16,1.17-.48,1.57-1.55,2.71-1.53,3.38.85.28,1,1.21.61,1.91.64,1.39.07,2.55.4,1.89,2.24-.51,1.44.59,1,1.17,1.09,1,.13,2.14.33,2.32,1.46.26,1.57-1.3,1.55-2.19,2a21.68,21.68,0,0,0-2.27,1.24c-2,1.38-3.56,1.58-4.6-1.15-.67-1.76-2-1.59-2.71-.21-1.5,2.77-4,4.34-6.3,6.18-1.49,1.18-2.65,2.69-2.11,4.86.24,1,.55,2,1.7,2.23a2.43,2.43,0,0,0,2.23-1.06,5.32,5.32,0,0,0,1.19-4.92,3.44,3.44,0,0,1,2.42-4.4c.93-.34,1.94-.82,2.81-.16,1.1.85-.1,1.8-.1,2.69,0,3-2.13,6,1,8.9,1.69,1.53.13,3.92-2.61,4.17-2.2.21-4.5,0-6,2.06-.92,1.21-2.49,2.34.08,3.76,1.7.95,1,2.57-.11,3.81s-2.59,1.88-2.31,4.24c2.2-1.15,3.3-3,4.48-4.63a11,11,0,0,1,8.44-4.65c1.46-.13,3,0,4.28-.88,1.48-1,3-2.15.92-4.07-.47-.43-1.11-1.19-.85-1.56,1.56-2.17,1.29-4,.15-6.42-.68-1.46,1.67-1.62,2.88-2.08,4.11-1.56,4.18-1.51,4,2.9,0,1-.53,2.24,1.19,3.34a19.29,19.29,0,0,0-2.56-11.16c-.63-1.1-1.59-2-.75-3.37.94-1.53,2.23-1.27,3.55-.68S142.26,656.14,143.7,656.49Z" transform="translate(29.03 -266.18)" />
	<path class="cls-1" d="M2031.42,579.21l1-1.07a1.79,1.79,0,0,1,2.4,1.06c1,2.57,2.75,2.86,5,2a16,16,0,0,1,1.94-.58c1.54-.44,2.3-1.1,1.45-3-1.61-3.51-1.52-3.55,2.16-4.31a10.77,10.77,0,0,0,1-.35,1.86,1.86,0,0,1,1.49.33c1.36,2,1.23,4.28,1.31,6.51.1,2.58,1,4.6,3.33,5.82,2.92,1.51,4,1.13,5-2,.32-1,.54-2,1.8-2s1.59,1.09,1.68,2.08c.16,1.81,1.12,2.8,2.55,3.81a2.24,2.24,0,0,1-.7,4c-1.34.44-3.08,0-3.76,1.76a10.47,10.47,0,0,0-.13,6.29c.6,2.46,1.86,4.13,4.69,6.46,0-.08-.1-.16-.16-.24-.93-1.24-2.55-2.22-1.74-4.18a2.38,2.38,0,0,1,2.32-1.54c2.07,0,2.91,1.59,3.71,3.18.33.67.59,1.37.93,2,.68,1.32,1.59,2.52,3.13,1.4,1.38-1,1-2.45.16-3.69a4.88,4.88,0,0,0-3.75-2c-2.32-.34-4.63-.92-6.34-2.63-1.23-1.23-2.34-2.9-.88-4.64s2.8-.61,3.93.73c.47.56.92,1.28,1.75.47,1.52-1.48,2.63.1,3.89.59a1.47,1.47,0,0,0-.55-2c-3.63-2.59-4.54-7.31-7.74-10.23a1.72,1.72,0,0,1,.14-2.67c1.55-1.26,1.42-2.11-.32-2.92s-3.56-1.32-4.62,1.08c-.46,1.06-.08,2.24-.26,3.35-.25,1.53-1,2.63-2.66,2.53s-2.27-1.28-2.08-2.89a10.52,10.52,0,0,0,0-3.36,3.22,3.22,0,0,1,.15-1.57c.57-2.58.15-6.15,4.87-4.55-.79-1.21-2-.72-2.59-1.49a1.89,1.89,0,0,1-.31-1.51,4.22,4.22,0,0,0,0-2.23c-.35-1-1.06-2.24.39-2.93s2.27.29,3,1.37c.57.79,1,1.76,2,2.15,1.06-.45.34-1.25.31-1.88a1.86,1.86,0,0,1,1.19-2.09,1.9,1.9,0,0,1,2,.64c.54.51.89,1.19,1.4,1.74,1,1,3.26.28,3.39,2.36s-2.05,1.77-3.06,2.7c-1.25,1.14-.54,2,.67,2.51,1.48.65,3.69-.61,4.51,1.63.65,1.75-.69,3.39-.63,5.16,0,.37,0,.75,0,1.12a6.91,6.91,0,0,0,1.63,4.51c-.11-1.59-2-2.75-1.22-4.54,1.93-1.77,3.49.81,5.31.46a2,2,0,0,1,1.42.59,34.16,34.16,0,0,0,3.27,17.62c.83,1.69.17,4,1,5.89.52,1.23,1.26,2.39,2.74,1.82s1.28-2,.9-3.23a9.82,9.82,0,0,0-2.39-3.74c-2.1-2.3-1.85-3.73,1-4.46,2.55-.65,1.87-2,.92-3.22a40.57,40.57,0,0,0-4.87-5.61c-1.56-1.34-2.6-2.94-.33-4.56,1.44-1,.75-1.85,0-2.74a7.42,7.42,0,0,0-4.66-2.75c-1.23-.19-2.82-.46-2.9-1.88-.21-4.15-1.62-8-2.72-11.88-.35-1.25.49-1.5,1.43-1.58a4,4,0,0,1,4.48,4.17c0,2,.18,3.78,1.71,5.14,1.77,1.57,3.21,1.07,3.71-1.25s-.77-3.9-2.49-5c-2.5-1.59-5-3-6.87-5.53-.9-1.23-2.17-1.28-2.69.55-.84,2.93-2.55,2.53-4.52,1.37-.53-.31-1.12-.5-1.67-.77-1-.51-2.83-.17-3-1.71s1.42-1.78,2.63-2c.91-.17.83-.68.52-1.35s-.17-1.74.6-1.85c1.87-.27,3.39-.67,3.85-2.93.1-.51,1.14-.35,1.64,0,1.07.82,1.72,1.21,2.83-.3s1.87.06,2.27,1.1c.73,1.86,1,3.9,2.11,5.6.49.74,1.23,1.58,2.09,1s.22-1.55-.31-2.24a4.17,4.17,0,0,0-.81-.76c-1.25-.93-2.3-2-1.71-3.77.65-1.93,2.32-.43,3.38-.78.2-1-.27-1.63-.34-2.37-.1-1-.11-2.08,1-2.59s1.87.06,2.42,1a4.84,4.84,0,0,0,2.2,1.9c1.52.76,2.08,1.93.68,3.23-2.38,2.22-.59,3.4.95,4.7a3.44,3.44,0,0,1-.68,3.79,2.74,2.74,0,0,0-.09,3.72c1.1,1.51,2.08,1.5,2.95-.29,1.34-2.75-.88-4.65-1.51-6.94,1.08-2,4.18-1.39,4.74-4,0-.2.42-.26.66-.24,1.39.06,1.91,1.14,2.1,2.24.29,1.71,3.66,3,1.47,4.71-3,2.32-2.31,5.85-3.51,8.68-.78,1.83-.94,3.44-3.1,3.82-2.78.5-3.46,2.22-2.3,4.64a66.38,66.38,0,0,1,2.66,7.8c.32.94.74,1.94,2,1.87a1.41,1.41,0,0,0,1.27-1.18,1.86,1.86,0,0,0-1.37-2.32c-2.36-.89-3.35-2.08-1.21-4.31.46-.49.15-1.18,0-1.79-.41-1.5-.08-2.48,1.66-2.48a4.45,4.45,0,0,0,2.05-.7c2.43-1.25,3.14-.75,3.26,2.09,0,1.17-.7,2.57.82,3.33a.83.83,0,0,0,1-.27c1-1.38.22-2.63-.37-3.85a10.27,10.27,0,0,0-2.31-2.9c-.92-.86-2.61-1.48-1.66-3.24.83-1.56,2.32-.93,3.76-.71,0-1.43-.93-2.23-1.63-3.17s-2-1.88-1.2-3.24a4.16,4.16,0,0,1,3.32-2.08c1.61,0,1.57,1.63,2,2.74.13.34.2.75,1,.79a5.42,5.42,0,0,0-1.28-6.35,4.59,4.59,0,0,1-1.72-3.19c0-.86.78-1.89,1.16-1.53,2.67,2.51,4.41-3.64,6.75-.74.86,1.07,1.17,2.54,2.32,3.64s0,2.49-.87,3.55c-1.18,1.36-1.93,2.63.19,3.94,2.76,1.7,1.41,3-.63,3.82-2.55,1.07-3.65,2.86-3.09,5.62.22,1,0,2.53,1.53,2.6,1.13,0,1.51-1.11,1.85-2.07.12-.35.18-.73.29-1.09.64-2,1.63-3.18,3.7-1.51.74.59,1.52,1,2.25.18.88-1,.17-1.91-.61-2.55-1.58-1.3-3.26-2.5-1.63-4.91a.54.54,0,0,0-.12-.67c-.82-.82-3-1.65-2-2.59,1.78-1.75,1.58-4.76,4-5.89a3.45,3.45,0,0,1,2.18,3.21c.15,2.61.3,5,3.57,5.66,1.06.21.92,1.6.7,2.63s-.91,1.83-.13,2.84c1.25.21,1.55-1,2.27-1.6s1.64-1.32,2.63-.59a2.33,2.33,0,0,1,.8,3c-1.49,2.69-2.72,5.74-6.43,6a5.63,5.63,0,0,0-4.4,2.37,5.52,5.52,0,0,1-3,2c-2.54.76-5,1.36-4.17,5.22.37,1.78-1.56,1.85-2.93,1.89-5.12.12-8.91,4.12-9,9.47,0,.78,0,1.58.86,1.85s1.39-.31,1.82-1a8.57,8.57,0,0,0,1.07-4.69c.09-2.11.89-3.19,3-1.8a4,4,0,0,0,2,1c2.39,0,3.24,1.31,2.51,3.76,3.91-1.49,4.69-3.28,2.94-6.54-1.21-2.24-1.83-4,1.59-4.47,1.07-.15,1.13-1.23,1.2-2.09.18-2.31,1.32-3.08,3.47-2.43a4.45,4.45,0,0,0,2.17-.12c.85-.17,1.78-.36,2.28.63a2.09,2.09,0,0,1-.44,2.43c-1.65,1.75-.67,5.17-3.74,6.07-.51.14-.57,1.15.08,1.56s1.21-.11,1.48-.66c1.1-2.25,2.44-3,4.31-.49.26-1.53-.65-2.2-1-3.08s-.47-2.77.1-2.66c3.4.65,2.5-5,5.88-4a2.1,2.1,0,0,1,.66.31c1.18.87,1.88,8.93.83,10.06-2.17,2.34-4.67,4.36-6.22,7.28-.54,1-1.61.93-2.62.89-2.89-.12-5.54,0-6.77,3.56-.6,1.72-2.32,1.41-3.84,1-4.8-1.44-7.23-.59-10.34,3.77-2.32,3.26-1.68,6.56.53,10.65.22-2.61-2.48-5.49,1.54-6,.44-.06,0-1.11-.16-1.69-.35-1.56-.46-3.15,1.26-3.85,2.1-.85,2.24,1.28,3.07,2.51,1-1.24,1.51-3.63,3.82-1.91.87-2.82,4.23-2.12,5.64-4.2.75-1.1,1.77-1.93,3.11-1.29,1.66.79.37,2.16.47,3.28.19,2.17-.19,3.68-2.64,4a1.69,1.69,0,0,0-1.59,2.37c.33,1.23-.13,2.79-1,3-4.06.79-4.86,4.54-6.81,7.26q-8,8.22-15.9,16.44a6.14,6.14,0,0,1-3.07,1.94,3.52,3.52,0,0,0-2.55,2c-.91,2.62-1.82,5-5.32,4.25-.64-.15-1.14.58-1.18,1.21-.17,3.15-2.28,3.25-4.6,3.35-.95,0-1.95.71-2.57-.49a2,2,0,0,1,.58-2.69c2.6-1.22,1.47-5.21,4.45-6-.61-2-.43-3.67,2.31-4-1.29-1.23-3.52-1.17-2.79-3.33.61-1.82,2.12-1.78,3.67-1.5.64.11,1.66.85,1.88-.17.79-3.67,2.93-1.29,4.63-1.54a7.7,7.7,0,0,0-7.05-1.37,9.21,9.21,0,0,0-5.95,11.51c.71,2.17.81,3.83-1.8,4.75-2.43.85-2.49,3.33-2.43,5.34.06,2.22,0,4-2.41,4.73-.84.25-1.28,1.17-1.72,1.9-2.93,4.84-7.4,4.47-12,3.77a2.08,2.08,0,0,1-1.94-1.93c-.14-1.07,0-2,1.23-2.41.57-.19,1.62-.09,1.68-.53.8-5.54,3.86-2.41,6.67-1.61-2.5-2.09-1.87-3.46.37-4.63.63-.33,1.26-1,.39-1.75a1,1,0,0,0-1.56.44c-.89,3.42-4.74,1.82-6.36,4a1.22,1.22,0,0,1-1.7,0c-1.39-1.86,0-4.08-.59-6.13-.33-1.17.88-1.68,1.9-1.8a2.89,2.89,0,0,0,2.94-2.59c.63-2.48,2.46-1.19,3.79-.37,2.42,1.49,4.47,1,6.09-1.21.53-.72,1.22-1.84-.81-1.87-1.5,0-4.43-5.26-3.88-6.58.48-1.13,1.53-1.13,2.51-1.13a6.73,6.73,0,0,0,4.51-1.28c.58-.48,1.07-1.13.63-1.95-.34-.62-1-.59-1.62-.57-5.52.19-9,3.77-9.25,9.5-.07,2-.69,3.25-2.87,2.73s-3,.71-3.43,2.44a10.58,10.58,0,0,1-3.51,6,3.45,3.45,0,0,0-1.15,2.69c0,3.33-2.06,5.16-4.55,6.77-1.49,1-3,1.56-4.26,0s.27-2.47,1.17-3.46c.41-.45,1-.79.86-1.57-.73-.87-1.56-.33-2.32-.07-1.79.62-3.13.4-3.62-1.78-.41-1.86-1.87-2.13-3.4-2.21-1.87-.1-3.71-.23-4.72-2.22.82-2.77,4.38-2,5.47-4.38.07-.16.61-.18.68,0,1.54,3.18,5.78.75,7.44,3.78.46.83,1.43,1.64,2.47.82s.37-1.75-.23-2.59c-1.41-2-.3-3,1.48-3.58a5.93,5.93,0,0,0,2.65-1.2c.76-.78.77-1.48-.21-2.13a5,5,0,0,0-6.76,1.56c-1.91,3.44-1.93,3.46-4.8,1.12a2,2,0,0,0-2.94.27c-1.73,1.8-3.3,2.6-5-.09-.47-.75-1.64-.43-2.36-.9-1.3-.84-1.67-1.93-.25-2.93.78-.56,1.91-.61,1.19-2.08-.48-1-.95-2.31.32-3s2.63,0,3.57,1.11c1.86,2.07,4,2.79,7,1.44-1.52-1.41-5.61-1.15-3.1-4.71,3.33-4.73,4.56,1.77,7.37,1.16-.27-1.2-1.06-2.89.73-3.78,2-1,2.49,1,3.44,1.95a8.09,8.09,0,0,0,5,2.89,1.31,1.31,0,0,0,1.6-1.17c.09-1-.73-1.15-1.48-1.2s-1.47.19-2.2.13c-2.09-.19-3.19-1.33-1.71-3.16,1.06-1.31-.19-4.36,2.3-4,1.93.26,3.14-.76,4.69-1.11,1.4-.32,1.65,1.18,2.1,2.18s1,1.79,2.2,1.56a1.44,1.44,0,0,0,1.3-1.55c-.09-1.23-1.1-1.59-2-1.89a48.67,48.67,0,0,1-7.28-2.54c-2.31-1.15-4.09-.67-4.61,2.23-.38,2.14-1.63,2.62-3.64,3.32-2.79,1-6.37.51-8.34,3.66a1.49,1.49,0,0,1-2.28.38,13.94,13.94,0,0,0-3.73-2.32c-.81-.4-1.52-1.78-.82-2.08,2.36-1,2.06-3.8,3.79-5.09,1.77.07,2.87,1.9,4.67,1.86a3.8,3.8,0,0,0,3.29-1.23c.56-.74.13-1.43-.47-1.92-1.11-.93-2.32-1.44-3.62-.39s-2.42,1.67-4,1c-1.4-1.86-2.78-3.27-4.9-.73-.94,1.13-2,.59-2.71-.54a6.24,6.24,0,0,0-1.75-2.37c-1-.62-1.94-1.33-1.33-2.68s1.76-1.14,2.89-1c.59.1,1.14.47,1.82.28.58-1.08-1.09-2.83.86-3.5,1.72-.6,2.77.43,3.61,1.81a3.06,3.06,0,0,0,.72.84c.71.56,1.6,1.14,2.23.21s-.2-1.63-.91-2.15a12.07,12.07,0,0,0-3.73-1.54c-2.87-.93-2.89-.94-1.62-3.72.28-.63-.09-.88-.37-1.23-1.39-1.74-1.27-2.89,1.1-3.39,1-.2.68-1.18.78-1.89.18-1.42.59-2.57,2.33-1.75,1.35.64,1-.52,1.15-1.1.22-1,.5-2.16,1.62-2.26,1.54-.13,1.39,1.45,1.79,2.41a21.37,21.37,0,0,0,1,2.42c1.18,2.11,1.24,3.76-1.5,4.6-1.76.55-1.71,1.88-.43,2.76,2.58,1.76,3.9,4.42,5.5,6.94,1,1.62,2.4,2.92,4.55,2.55,1-.16,2-.39,2.3-1.55a2.5,2.5,0,0,0-.85-2.36,5,5,0,0,0-4.67-1.63c-2.2.28-3.52-.67-4.08-2.83-.26-1-.65-2.05.07-2.88.91-1.05,1.74.25,2.6.32,2.89.23,5.7,2.68,8.74-.33,1.63-1.61,3.83.19,3.85,3,0,2.26-.37,4.59,1.5,6.35,1.11,1,2.07,2.73,3.67.23,1.06-1.67,2.57-.84,3.69.42s1.62,2.8,3.93,2.7c-.94-2.33-2.65-3.61-4.14-4.95a11.51,11.51,0,0,1-3.82-9c0-1.49.22-3.08-.51-4.44-.84-1.59-1.84-3.27-3.88-1.27-.46.45-1.25,1-1.58.73-2-1.76-3.8-1.64-6.24-.68-1.46.58-1.43-1.84-1.78-3.1-1.18-4.33-1.13-4.4,3.15-3.83,1,.13,2.13.73,3.34-.94a18,18,0,0,0-11.06,1.7c-1.12.55-2.08,1.45-3.34.48s-1-2.38-.37-3.68S2031,580.65,2031.42,579.21Z" transform="translate(29.03 -266.18)" />
	<g id="MKg6fT.tif-4" data-name="MKg6fT.tif">
		<path class="cls-1" d="M1360.56,648.93c-1.24-1.68-.76-4.4,1.08-4.9a12.37,12.37,0,0,0,6.22-4.16,4.75,4.75,0,0,1,3.87-1.68,7.47,7.47,0,0,0,5.35-2.1,7.25,7.25,0,0,1,5.11-2.24h.78l.19-.56a40.15,40.15,0,0,0-1.62-3.8c-.53-1-1.36-1.74-2-2.66a1.71,1.71,0,0,0-2.18-.79,2.33,2.33,0,0,0-1.3,2.26,3.57,3.57,0,0,1-1.57,3.22,2.33,2.33,0,0,1-3,.1,6.14,6.14,0,0,1,.68-4.24c1.58-2.94.69-4.48-1.16-6.46a18.39,18.39,0,0,0-2.51-1.92,6.09,6.09,0,0,0-4.93,4.09,1.31,1.31,0,0,0,.5,1.78,7.86,7.86,0,0,1,1.85,1.54,4.43,4.43,0,0,1,.48,4.79,29.47,29.47,0,0,1-4.81,7.66c-.56.66-1.11,1.36-2.05.53-.54-2.23.69-4.23,1.27-6.33a29.4,29.4,0,0,0,1.16-4.22c.25-2-.56-3-2.84-3.5a5.33,5.33,0,0,0-6,2c.23.91.52,2,.81,3.07a23.55,23.55,0,0,1,.69,2.72c.13,1,.06,2.13-1.1,2.52s-1.7-.43-2.16-1.84a12.33,12.33,0,0,1-.41-2.73c-.14-1.67-.21-1.82-2-2.61a33.9,33.9,0,0,0-3.57,2.46c-1,.86-.91,1.85.18,2.4a7,7,0,0,1,3,3.63,18.67,18.67,0,0,0,1.1,2.19,3.69,3.69,0,0,0,1.4,1.47c2,.76,2.64,2.21,2.38,4.37s-.42,4.34-.67,6.51a5.17,5.17,0,0,1-.57,1.34c-1.77-.18-2.16-1.49-2.36-2.87-.28-1.9-1.94-1.88-3.1-2.35-1-.39-1.94.35-2.61,1.27-1.51,2.07-1.1,3.87,1.23,5.49.64.45,1.33.83,2,1.26a5.48,5.48,0,0,1,2,6,25.56,25.56,0,0,0-.87,3.5c-.33,2.48,1,4.15,2.57,5.62l5.7,2.53c2.36,0,2.43-1,2.39-2.7a15.84,15.84,0,0,0-.82-3.8c-.27-1-.64-1.89-1-2.85,1.83-1.64,3.62-1,5.33-.57,1.9.49,3.65,1.22,5.51-.54a3.35,3.35,0,0,1,3.34-.56,3.71,3.71,0,0,0,1.75,0c.92-.19,1.07-1,.92-1.76a3.74,3.74,0,0,0-5-3c-.72.25-1.4.66-2.13.87-1.33.39-2.68.69-3.88,1-1.5-2.16-1.13-3.69.87-4.57a17.92,17.92,0,0,1,9.75-1.73,2.69,2.69,0,0,1,2.32,1.53c1.41,3.41,4.34,3.56,7.24,3.77a11.23,11.23,0,0,0,3.56-.26,11.06,11.06,0,0,0,2.56-1.52,29.77,29.77,0,0,0-.84-3.07c-.8-2-2.39-2.52-4.12-1.4-1,.67-2,1.59-3.36,1.17-.87-.28-1.72-.63-2.57-.95l-.08-.54a12.19,12.19,0,0,1,1.16-1.22c1.18-1,2.37-2,3.62-2.84a5.68,5.68,0,0,1,2.15-1c4-.69,5.06-3.42,2.65-6.81a8.41,8.41,0,0,0-3.72-3.07,2.47,2.47,0,0,0-3.52,1.61c-.35.93-.4,2-.69,2.93-.69,2.34-1.63,4.49-3.68,6-1.15.83-2.17,1.16-3.58,0,.39-.59.8-1.18,1.17-1.79s.59-1.32-.1-1.92c-1.56-1.35-4.92-1-6,.82a14,14,0,0,0-.89,2.65c-.13.39-.32.76-.56,1.29a10.69,10.69,0,0,1-5.78.56" transform="translate(29.03 -266.18)" />
	</g>
	<g id="MKg6fT.tif-5" data-name="MKg6fT.tif">
		<path class="cls-1" d="M1421.58,666.18c-2,.65-4.31-.71-4.16-2.65a13.06,13.06,0,0,0-1.8-7.4,5,5,0,0,1-.27-4.29,7.93,7.93,0,0,0-.18-5.88,7.64,7.64,0,0,1-.39-5.68l.27-.75-.45-.37a38.6,38.6,0,0,0-4,.32c-1.07.19-2,.75-3.1,1a1.74,1.74,0,0,0-1.44,1.84,2.31,2.31,0,0,0,1.66,2,3.51,3.51,0,0,1,2.45,2.57,2.5,2.5,0,0,1-.89,2.93,5.84,5.84,0,0,1-3.68-2c-2.19-2.5-3.9-2.15-6.33-1a16.87,16.87,0,0,0-2.6,1.8,6.3,6.3,0,0,0,2.15,6.11,1.23,1.23,0,0,0,1.8.1,7.63,7.63,0,0,1,2-1.28,4.15,4.15,0,0,1,4.57,1.1,29.42,29.42,0,0,1,5.48,7.18c.43.75.89,1.52-.19,2.16-2.23-.21-3.66-2.06-5.41-3.32a30,30,0,0,0-3.51-2.51c-1.75-.88-2.91-.42-4.16,1.61a5.67,5.67,0,0,0-.15,6.49l3.1.23a20.5,20.5,0,0,1,2.72.22c1,.2,2,.64,2,1.89s-1,1.51-2.41,1.49a11.62,11.62,0,0,1-2.64-.51c-1.6-.41-1.76-.39-3.08,1.1A37.83,37.83,0,0,0,1400,675c.47,1.24,1.42,1.49,2.27.61a6.86,6.86,0,0,1,4.33-1.71,17.2,17.2,0,0,0,2.39-.35,3.62,3.62,0,0,0,1.81-.87c1.35-1.67,2.91-1.82,4.81-.86s3.86,1.82,5.78,2.78a5.32,5.32,0,0,1,1,1c-.75,1.66-2.09,1.6-3.43,1.35-1.84-.36-2.36,1.25-3.18,2.22-.67.79-.31,2,.31,2.95,1.42,2.14,3.21,2.34,5.47.61.62-.47,1.2-1,1.81-1.5a5.19,5.19,0,0,1,6.18.07,23.8,23.8,0,0,0,2.94,2c2.17,1.13,4.14.42,6-.65l4.21-4.68c.78-2.28-.17-2.7-1.7-3.21a15.39,15.39,0,0,0-3.78-.44c-1-.07-2,0-2.94,0-.92-2.3.26-3.83,1.22-5.34,1.07-1.68,2.33-3.14,1.32-5.51a3.61,3.61,0,0,1,.57-3.43,3.88,3.88,0,0,0,.55-1.7c.12-.95-.57-1.36-1.32-1.47a3.78,3.78,0,0,0-4.39,3.86c0,.78.14,1.58.1,2.36-.08,1.41-.25,2.82-.37,4.08-2.48.74-3.76-.13-3.92-2.35a19.12,19.12,0,0,1,1.61-10,2.69,2.69,0,0,1,2.17-1.75c3.61-.25,4.71-3,5.85-5.77a7.51,7.51,0,0,0,.37-6.51,26.91,26.91,0,0,0-3.1-.19c-2.12.11-3.1,1.48-2.64,3.52.27,1.24.79,2.49,0,3.64-.54.75-1.15,1.45-1.72,2.17l-.52-.1a12.61,12.61,0,0,1-.75-1.52c-.51-1.47-1-2.94-1.42-4.44a5.93,5.93,0,0,1-.18-2.4c.67-4.06-1.5-6-5.4-4.79a8.31,8.31,0,0,0-4.06,2.58,2.6,2.6,0,0,0,.33,3.95c.74.64,1.68,1,2.47,1.62a10.44,10.44,0,0,1,4.3,5.54c.39,1.38.36,2.47-1.19,3.45-.42-.57-.82-1.16-1.26-1.72s-1-1-1.81-.53c-1.75,1.06-2.51,4.44-1.22,6.09a13,13,0,0,0,2.15,1.73c.32.26.59.57,1,1a11.55,11.55,0,0,1-1.38,5.78" transform="translate(29.03 -266.18)" />
	</g>
	<g id="qyG0xV.tif-2" data-name="qyG0xV.tif">
		<path class="cls-2" d="M1751.87,751.59a15.47,15.47,0,0,0,7.89-8.46,8.76,8.76,0,0,1,1.68-2.68c2.16-2.4,5-3.25,8-3.62,4.5-.53,8.41-2.37,11.11-6.2a13.32,13.32,0,0,1,8.7-5.49,12.43,12.43,0,0,1,3,.08l-.38,1.13c-2.21,2.18-4.46,4.34-6.63,6.57a7.07,7.07,0,0,0-1.21,1.9c-2.14,4.37-6.07,6.06-10.31,6.36-5.68.4-8.94,3.4-11.11,8.4-1.73,4-5.35,5.73-9,7.33-.13.06-.32-.07-.67-.15-.42-4.59-2.86-8.14-6.47-11a16.54,16.54,0,0,0,6.24-9.38c.74-2.85,3.28-4.57,6.08-5.58,1.15-.42,2.33-.79,3.51-1.13a15.62,15.62,0,0,0,9.92-7.72c2.08-3.9,5.74-5.37,9.63-6.42.33-.09.74.19,1.1.3l-.27,1.28a33.9,33.9,0,0,0-7.73,10.85c-1.47,3.52-5.13,5-8.69,5.66-5,.95-8.39,3.64-9.79,8.58a12.68,12.68,0,0,1-5.85,7.48" transform="translate(29.03 -266.18)" />
		<path class="cls-2" d="M1745,744.59c.94-1.74,2-3.44,2.8-5.23.48-1.07.51-2.31.93-3.41a10.59,10.59,0,0,1,7.34-6.84,16.32,16.32,0,0,0,2.39-.79c3.56-1.65,6.42-3.8,7.58-8,1.24-4.47,4.71-7.77,7.38-11.48l-1.27.45c-4.16.66-7.68,2.65-9.57,6.47a18.34,18.34,0,0,1-11.62,10c-3.86,1.21-6.85,3.87-7.48,8.31a14,14,0,0,1-3.77,7.18,10.67,10.67,0,0,0-.79,1.19" transform="translate(29.03 -266.18)" />
		<path class="cls-2" d="M1752.36,765.2l5.44-1.19,5.41-2.65c1.79-1,2.91-1.36,3.58-2a18.63,18.63,0,0,0,2.26-2.67c2.62-4.06,5.82-7.06,10.93-6.88a16.36,16.36,0,0,0,3.13,0c2.79-.45,5.81-1,7.49-3.5,2.41-3.59,5.62-6.06,9.08-8.37a15.78,15.78,0,0,0,1.81-1.67l-.74-.79a15.67,15.67,0,0,0-12.44,5.27,13.45,13.45,0,0,1-10.16,4.26,16.78,16.78,0,0,0-7,1.29,8.18,8.18,0,0,0-4.06,3.72c-3,5.6-8,8.06-13.78,9.31" transform="translate(29.03 -266.18)" />
		<path class="cls-2" d="M1752.91,756.76l.37.38c-.32,2.82-.65,5.64-.92,8.06a25.23,25.23,0,0,0-1.65,2.64,6.53,6.53,0,0,1-2.81,3.23l-17.49-26.59c2.79-2.08,6-2.1,9-1.55a36.27,36.27,0,0,1,7.07,2.8S1752.8,751,1752.91,756.76Z" transform="translate(29.03 -266.18)" />
		<path class="cls-2" d="M1752.11,762.51l-4-5.47" transform="translate(29.03 -266.18)" />
		<path class="cls-2" d="M1750.7,767.17l-3.64-4.86" transform="translate(29.03 -266.18)" />
	</g>
	<g id="rnXYp7.tif">
		<path class="cls-1" d="M1088.58,305.64c.89,2.89,2.91,3.94,5.78,4.36,2.61.38,5.9-.52,7.71,2.84l-3.16,2.86c-2.2,4.5-1.2,6.73,4.4,8.52a23.08,23.08,0,0,1,3.21,1.23c3.59,1.76,3.61,3.05,1.11,6.33-1.43,1.88-2.06,4.4-2.91,6.3,3.87,6.48,8.45,10.94,14.7,13.85a10.35,10.35,0,0,0,10.58-.57,7.41,7.41,0,0,0,2.08-1.63c5.23-6.67,12.55-8.06,20.27-8.71a25.66,25.66,0,0,0,7.72-2c1.88-.8,3.43-2.43,4.82-3.47-.52-3.37-.92-6-1.42-9.29,1.18-.78,2.54-2.43,4-2.47,3.16-.11,5.3-1.13,6.32-5l-4.08-6.3a3.65,3.65,0,0,1,.71-5.27c2.08-1.8,4.19-3.55,6.08-5.15-1.14-7.45-5.74-10.65-10.31-7.23-2.24,1.68-3.61,4.69-5.15,7.24-1.12,1.85-.81,4.73-3.94,5.39a21.45,21.45,0,0,0-3.5-3.67c-.93-.63-2.39-.44-3.56-.6-3.13,1.7-2.5,4.93-2.9,7.65-.35,2.39-.9,4.43-3.23,5.31-.76-.11-1.5,0-2-.32-3.89-2.66-5-2.6-7.2.56-1.58,2.22-.64,5.05,2.39,7.25.37.27.64.81,1,.87,1.94.35,3.91.59,5.92.87,1.52,2.28,2.21,4.5-.46,6.45-6.48.25-6.09.94-7.69,6.61-.75,2.69-4.23,5.61-6.75,5.58-2.71,0-4.31-1.33-4.48-3.82,1.28-2.44,2.93-4.62,3.59-7.08,1.06-4-1-6.73-4.88-7.57-5.36-1.16-6.94-3.5-6.32-8.95a27.74,27.74,0,0,0,.1-6.5c-.5-3.86-3.54-6.58-7.59-7.22-3.59-.57-3.74-.67-5.93-4l3.16-3.28c1.65-1.73,2.43-4.16,1-5.85a8,8,0,0,0-5.53-2.33c-3.61-.06-3.64.26-5.58-3.23,1.75-2.85,5.51-4.64,4.59-9.72-3.52.15-7.12-.23-10.41.64-2.39.64-3.5-.15-4.71-1.62s-2.25-3.21-3.52-4.68c-2.43-2.8-8.66-3.45-11.42-1.23a7,7,0,0,0-2.25,6.55c.3,2.21,2.22,3.36,4.59,3.83a25,25,0,0,1,7.11,2.57c1.09.6,1.59,2.32,2.42,3.64l-5.86,2.91c-.86,3.67.67,5.7,4.72,6.57a67,67,0,0,1,8.33,2c1.5.54,2.71,1.95,4.09,3l-5.74,6.66" transform="translate(29.03 -266.18)" />
		<path class="cls-1" d="M1076.73,307.43l-5.47.32c-1.69-3.19-1.59-7.54-5.86-7.92-1.43-.13-3,1.3-4.48,2l-.19,1.29c1.47,1.39,2.89,2.84,4.41,4.17,3.73,3.26,3.85,4.17,1.51,9.1,1.11,1.38,2.17,3.41,3.81,4.63,4.17,3.09,4.73,4.43,2.83,9.3-2,5.1,2.61,12.59,8,13,2.36.19,4.63-1.65,5.06-4.67a25.26,25.26,0,0,1,3.52-10.33c.92-1.44,1-4.91,0-5.82-1.54-1.42-4.31-1.47-6.74-1.61-2.09-.44-2.63-2-2.07-4.08,1.56-5.88,1.41-6.26-4-9.39" transform="translate(29.03 -266.18)" />
		<path class="cls-1" d="M1055.22,289.05l-2.31,2.18L1052,291l0-4.41c4.09,1.87,7.58,3.52,11.12,5.07,2.36,1,4.66-.52,5.32-3.46-3.84-3.54-5.75-3.47-10.91.39" transform="translate(29.03 -266.18)" />
		<path class="cls-1" d="M1132.19,290.27l1.49,2.9" transform="translate(29.03 -266.18)" />
		<path class="cls-1" d="M1129,269.48l-2.74,3.35.81,1.26,5-.66.33-1.36-3-2.54" transform="translate(29.03 -266.18)" />
		<path class="cls-1" d="M1119.06,276.53l-2.56.89-.63,4.7,5.37,1.92c3.32-4,3-5.17-1.82-7.46" transform="translate(29.03 -266.18)" />
		<path class="cls-1" d="M1135.26,284.18a3.6,3.6,0,0,1-1.21.57c-4.66.32-5.65,1.89-6.15,6.46-.36,3.25,1.37,5,3.73,6.22s6.57-.27,8.61-2.95c2.31-3,1.06-7-2.88-9.24l-1.74-1" transform="translate(29.03 -266.18)" />
		<path class="cls-1" d="M1058.61,274.94l-2.61,2.41c2,2.32,3.08,1,5.06-.89L1059,275" transform="translate(29.03 -266.18)" />
	</g>
	<g id="rnXYp7.tif-2" data-name="rnXYp7.tif">
		<path class="cls-1" d="M964.64,346.91c2.62,1.44,4.78.75,7.12-1,2.13-1.59,3.87-4.59,7.46-3.48l-.32,4.31c1.48,4.8,3.72,5.69,9,3A22.53,22.53,0,0,1,991,348.3c3.77-1.3,4.66-.39,5.1,3.74.26,2.38,1.51,4.63,2.2,6.6,7.18,1.88,13.5,1.81,20-.57a10.75,10.75,0,0,0,7.21-8,7.84,7.84,0,0,0,.38-2.65c-.78-8.53,3.52-14.75,8.61-20.74a26.79,26.79,0,0,0,4.18-7c.8-1.92.8-4.2,1.09-5.94l-7.33-5.64c.31-1.4.17-3.56,1.15-4.6,2.2-2.34,3-4.6,1.1-8.14l-7.21-1.6a3.58,3.58,0,0,1-3.07-4.29c.27-2.77.59-5.54.86-8-5.89-4.53-11.36-3.54-12.31,2.18-.46,2.81.6,5.94,1.22,8.87.46,2.13,2.64,4,.85,6.68a21.1,21.1,0,0,0-5-.14c-1.09.22-2,1.4-3,2.12-1.09,3.46,1.56,5.32,3.13,7.56,1.37,2,2.36,3.81,1.29,6.11-.62.47-1.08,1.08-1.63,1.18-4.59.87-5.32,1.67-4.78,5.55.37,2.72,3,4.07,6.65,3.49.43-.07,1,.12,1.31-.1,1.63-1.15,3.21-2.38,4.84-3.61,2.64.55,4.65,1.64,4.05,4.95-4.47,4.81-3.73,5-1,10.23,1.29,2.47.79,7-1,8.83s-4,2.12-5.81.46c-.74-2.66-1-5.4-2.24-7.64-2-3.63-5.26-4.15-8.65-1.95-4.63,3-7.35,2.46-10.62-1.9a26.4,26.4,0,0,0-4.34-4.73c-3-2.41-7-2.19-10.36.25-3,2.15-3.13,2.18-7,1.35,0-1.52,0-3.06,0-4.61,0-2.42-1.09-4.72-3.24-4.93A8,8,0,0,0,962,324c-2.63,2.54-2.43,2.78-6.2,1.67-.68-3.3.8-7.27-3.32-10.26-2.41,2.63-5.26,4.93-7,7.91-1.27,2.16-2.6,2.38-4.47,2.2s-3.8-.7-5.71-.84c-3.65-.27-8.55,3.71-9,7.27a6.88,6.88,0,0,0,2.83,6.3c1.72,1.38,3.88.83,5.9-.53a25.12,25.12,0,0,1,6.85-3.23c1.18-.35,2.71.53,4.21.88l-2.23,6.28c1.88,3.24,4.36,3.6,7.86,1.33a67.77,67.77,0,0,1,7.34-4.5c1.44-.69,3.27-.53,5-.77l.41,8.88" transform="translate(29.03 -266.18)" />
		<path class="cls-1" d="M957.36,356.66l-3.7,4.14c-3.38-1.08-6.27-4.27-9.59-1.49-1.11.92-1.25,3.06-1.83,4.65L943,365c2,0,4,0,6-.16,4.88-.32,5.59.25,7.27,5.45,1.73.2,3.87.9,5.87.6,5.09-.76,6.41-.21,8.36,4.65,2,5.07,10.43,7.16,14.58,3.63,1.83-1.55,2.2-4.49.46-7a25,25,0,0,1-4.5-9.93c-.32-1.69-2.61-4.24-3.93-4.19-2.08.07-4.09,2-5.93,3.66-1.8,1.17-3.25.43-4.26-1.45-2.87-5.34-3.24-5.49-9.25-3.89" transform="translate(29.03 -266.18)" />
		<path class="cls-1" d="M929.45,358.85l-.18,3.21-.77.48-3-3.14c4.21-1.58,7.84-2.89,11.42-4.31,2.4-.95,3-3.7,1.47-6.28-5.16.2-6.48,1.62-7.56,8.07" transform="translate(29.03 -266.18)" />
		<path class="cls-1" d="M985.48,304.73l3,1" transform="translate(29.03 -266.18)" />
		<path class="cls-1" d="M969,292.12l.31,4.35,1.44.33,3.13-4-.69-1.21-3.89.34" transform="translate(29.03 -266.18)" />
		<path class="cls-1" d="M966.71,304.26l-1.23,2.46,2.75,3.83,5.15-2.46c-.35-5.25-1.37-5.85-6.37-4" transform="translate(29.03 -266.18)" />
		<path class="cls-1" d="M983.53,298.18a4,4,0,0,1-.47,1.27c-3.14,3.56-2.78,5.39,0,9,2,2.6,4.39,2.61,6.91,1.8s4.52-4.89,4.17-8.27c-.4-3.82-4-5.8-8.35-4.57-.64.19-1.29.35-1.93.52" transform="translate(29.03 -266.18)" />
		<path class="cls-1" d="M922.28,346.31l-.23,3.59c3,.25,2.9-1.47,3-4.26l-2.49.44" transform="translate(29.03 -266.18)" />
	</g>
	<g id="w5FUVJ.tif">
		<path class="cls-3" d="M2264.92,458.78q-1.34,5.79-2.68,11.58c0,.09,0,.21,0,.3-.7,1.73,1.84,3.31.05,5.23-1.37,1.47-2,3.5-2.75,5.43a2.57,2.57,0,0,0,0,2.44" transform="translate(29.03 -266.18)" />
		<path class="cls-3" d="M2251.54,473.4c-.1,1.83-.3,3.66-.27,5.49,0,1.54-.55,3.24,1.39,4.39.55.32.42,2.12.34,3.22-.23,2.85.51,5.17,3,6.71" transform="translate(29.03 -266.18)" />
		<path class="cls-3" d="M2204.57,496.26a9,9,0,0,1,3.84,1.55c.5.38.93.76,1.51.57,4.07-1.38,6.27,2.17,9.16,3.77.61.34,1.14,1,1.83.79,2.62-.61,4.67.91,6.83,1.89a15.12,15.12,0,0,0,3.26,1c3,.65,6.11,1.53,6.65,5.66a3.91,3.91,0,0,0,3.48,3.4c2,.32,2.77-1.25,3.53-2.5,1.29-2.16,2.2-4.55,3.56-6.71.92-1.45-.5-4.13-2.33-4.83a7.31,7.31,0,0,1-2.67-1.23" transform="translate(29.03 -266.18)" />
		<path class="cls-3" d="M2209.33,457c.64,2.91.34,5.9.78,8.85.35,2.41.41,4.8,1.58,7,.23.44.47,1.23.27,1.48-1.82,2.26-.43,3.88.93,5.52" transform="translate(29.03 -266.18)" />
		<path class="cls-3" d="M2222.41,459.39c1.38,4.49-.63,9.22.89,13.71-2.12,6.09,2,11.14,2.77,16.74.09.6.5,1.15.21,1.85-1.46,3.42-1.33,4.58,1.51,7,2.25,1.89,3.92,3.92,3.83,7.05" transform="translate(29.03 -266.18)" />
		<path class="cls-3" d="M2271.46,457a51.32,51.32,0,0,1-1.55,14.3,3.68,3.68,0,0,0-.18,2.13c1,2.31,0,4.07-1.25,5.81" transform="translate(29.03 -266.18)" />
		<path class="cls-3" d="M2202.19,453.29c-.71,6.34,1.74,11.51,5.65,16.15" transform="translate(29.03 -266.18)" />
		<path class="cls-3" d="M2275.62,496c-2.33.74-4.25,3.28-7.18,1.61-.36-.21-1.36.7-2,1.14-2.86,1.86-5.25,4.59-9.24,4.07-1.19-.15-2.57,1.07-3.84,1.72-1.43.74-2.87,1.28-4.47.6" transform="translate(29.03 -266.18)" />
		<path class="cls-3" d="M2258.67,460c-.81.89-.65,2-.57,3,.22,3,.5,5.89-.26,8.85-.3,1.16.31,2.48.42,3.66A20.74,20.74,0,0,1,2256,486.2" transform="translate(29.03 -266.18)" />
		<path class="cls-3" d="M2278.89,453.9c.55,6-1.84,10.72-5.65,14.93" transform="translate(29.03 -266.18)" />
		<path class="cls-3" d="M2263.13,478.28c-.45,3.32-2.83,5.66-4.24,8.49a28.2,28.2,0,0,0-3,7.63c-.58,3.18-3.65,5-5.79,7.34" transform="translate(29.03 -266.18)" />
		<path class="cls-3" d="M2274.73,482.24c-1.36.21-1.39,1.63-2.11,2.41-2.93,3.2-6.76,4.9-10.68,6.4-.23.09-.59-.18-.89-.28" transform="translate(29.03 -266.18)" />
		<path class="cls-3" d="M2200.41,482.85c3.86,2.64,8.08,4.9,11.44,8.09a26,26,0,0,1,4.33,5.61c.63,1.08,1.3,2.39,3,1.54" transform="translate(29.03 -266.18)" />
		<path class="cls-3" d="M2207,455.42c-1.83.59-1.41,2.07-1.17,3.35a18.07,18.07,0,0,0,1.22,4.55,13.57,13.57,0,0,1,1.14,8.56" transform="translate(29.03 -266.18)" />
		<path class="cls-3" d="M2215.87,458.78c1,4.16,2.06,8.31,2.93,12.5.37,1.78-1.49,3.62.54,5.58,1.21,1.16,1.43,3.38,2.2,5.06a1.57,1.57,0,0,1,0,1.84" transform="translate(29.03 -266.18)" />
		<path class="cls-3" d="M2207.25,483.15a26.58,26.58,0,0,0,13.67,9.45" transform="translate(29.03 -266.18)" />
		<path class="cls-3" d="M2251,485c-.26,4,1.08,7.88.64,11.89-.06.57.54,1.22.84,1.83" transform="translate(29.03 -266.18)" />
		<path class="cls-3" d="M2191.19,455.73c1.49,2.85,1.81,6.21,3.82,8.87.81,1.07.6,2.75.24,3.89a1.78,1.78,0,0,0,1,2.43c1.93,1,3.61,2.47,5.57,3.5,1.67.88,2.6,2.94,4.19,4.2,2.07,1.65,3.88,3.66,6.87,3.34a2.63,2.63,0,0,1,2.09.88,26.77,26.77,0,0,1,6,8.63c.92,2.2,2.06,2.44,3.76,2.65" transform="translate(29.03 -266.18)" />
		<path class="cls-3" d="M2275,455.73c.95,2.34.15,4.72-.71,6.65a22.3,22.3,0,0,0-1.66,9.5" transform="translate(29.03 -266.18)" />
		<path class="cls-3" d="M2200.11,485a41.09,41.09,0,0,0,12.49,7.93" transform="translate(29.03 -266.18)" />
		<path class="cls-3" d="M2248.86,477.06c-.22,4.16-.31,8.37-.35,12.5a39,39,0,0,1-1.43,11.57" transform="translate(29.03 -266.18)" />
		<path class="cls-3" d="M2218.24,478.28c-.31,3.43,2.52,5.42,3.71,8.16a29.73,29.73,0,0,0,2.54,4.64" transform="translate(29.03 -266.18)" />
		<path class="cls-3" d="M2242,486.81a12.77,12.77,0,0,1-2.92,7.06c-1.12,1.29-1,3.41-2.14,4.83" transform="translate(29.03 -266.18)" />
		<path class="cls-3" d="M2236.08,486.2c.13,1.27-1.3,1.66-1.53,2.68,3.2,4.32,2.32,4.3,0,8.6" transform="translate(29.03 -266.18)" />
		<path class="cls-3" d="M2289.89,455.12c-1.14,4.05-3.42,7.67-4.21,11.87a4.64,4.64,0,0,1-2.06,3.31c-3.54,1.74-5.3,5.36-8.25,7.74-2.28,1.85-4.3,3.82-7.48,3.62a2.67,2.67,0,0,0-2.08,1.19c-1.83,2.33-3.86,4.5-5.07,7.31-.8,1.85-1.95,3.4-4.15,3.66" transform="translate(29.03 -266.18)" />
		<path class="cls-3" d="M2239.65,480.11c-1.15,3.59-.89,7.54-2.68,11" transform="translate(29.03 -266.18)" />
		<path class="cls-3" d="M2254.22,470.36c-.32,4.07-.13,8.19-1.19,12.18" transform="translate(29.03 -266.18)" />
		<path class="cls-3" d="M2232.81,466.09c1.15,2.89.44,5.74-.36,8.51-.25.87-.24,1.33.36,1.85" transform="translate(29.03 -266.18)" />
		<path class="cls-3" d="M2280.67,482.54c-2.57,1.83-5.17,3.63-7.71,5.51-.64.48-1.47,1-1.21,2.11" transform="translate(29.03 -266.18)" />
		<path class="cls-3" d="M2238.46,469.14a11,11,0,0,1-1.44,6.12c-.21.36-.24,1.08-.65,1.16-3.64.74-3.33,3.73-3.57,6.43a2,2,0,0,1-.29.61" transform="translate(29.03 -266.18)" />
		<path class="cls-3" d="M2281.27,485.29c-4.71,3.37-10.63,4.82-14.76,8.94-2.44,2.43-5.61,3.7-7.87,6.26a2.84,2.84,0,0,0-.86,2" transform="translate(29.03 -266.18)" />
		<path class="cls-3" d="M2185.84,464.57a41,41,0,0,0,3.6,3.62c1.52,1.21,3.27,2.09,5.32,1.25" transform="translate(29.03 -266.18)" />
		<path class="cls-3" d="M2214.38,461.82A21.21,21.21,0,0,0,2218,473.1" transform="translate(29.03 -266.18)" />
		<path class="cls-3" d="M2266.7,461.82a23.73,23.73,0,0,1-3.27,10.67" transform="translate(29.03 -266.18)" />
		<path class="cls-3" d="M2260.46,506.62c-4,4-9.59,5.59-13.66,9.46-1.2,1.13-2.07.55-3-.32" transform="translate(29.03 -266.18)" />
		<path class="cls-3" d="M2238.16,477.06c-.7,2.82-.65,5.81-1.78,8.53" transform="translate(29.03 -266.18)" />
		<path class="cls-3" d="M2229.24,482.24a13.9,13.9,0,0,1,2.2,8.54,8.77,8.77,0,0,0,2.27,6.39c2.81,3,3,6.21,1.18,9.75" transform="translate(29.03 -266.18)" />
		<path class="cls-3" d="M2221.52,507.23c2.08,2.31,4.22,4.39,7.4,5.29,1.56.45,2.79,2.14,4.19,3.24s2.77,1.49,4.16,0" transform="translate(29.03 -266.18)" />
		<path class="cls-3" d="M2295.24,463.65c-1.39,2.74-3.16,4.84-6.54,5a2.17,2.17,0,0,0-2.08,2.06" transform="translate(29.03 -266.18)" />
		<path class="cls-3" d="M2244.11,478.89c.19,2.45-.81,4.83-.34,7.32a2.33,2.33,0,0,0,1.53,1.82" transform="translate(29.03 -266.18)" />
		<path class="cls-3" d="M2220.33,467.92a12.82,12.82,0,0,0,2.08,7.62" transform="translate(29.03 -266.18)" />
		<path class="cls-3" d="M2243.51,505.7c-.05,2.19-1.25,3.05-3.27,3.07a24.2,24.2,0,0,0-2.67.29" transform="translate(29.03 -266.18)" />
		<path class="cls-3" d="M2246.19,480.72c.16,4-.47,7.93-.77,11.87a34.42,34.42,0,0,0,.17,7.93" transform="translate(29.03 -266.18)" />
		<path class="cls-3" d="M2200.41,491.69c3.33.19,6.63.39,9.23,3,1,1,2.09,1.1,3-.29" transform="translate(29.03 -266.18)" />
		<path class="cls-3" d="M2256,479.19c-.72,2.11-1.46,4.18-.31,6.41,1,1.9-.45,3.47-.88,5.17" transform="translate(29.03 -266.18)" />
		<path class="cls-3" d="M2242,492.91a7.15,7.15,0,0,0-1.85,6.1c.43,2.34-1.11,4-3.8,4.87" transform="translate(29.03 -266.18)" />
		<path class="cls-3" d="M2237,470.05c-2,1.77-1.72,4.42-2.37,6.71" transform="translate(29.03 -266.18)" />
		<path class="cls-3" d="M2292,469.75c-.63,1.89-2.27,1.78-3.55,1.45-2.13-.55-3.62.19-5.08,1.58-.83.79-1.8,1.31-3,.62" transform="translate(29.03 -266.18)" />
		<path class="cls-3" d="M2267.3,475.23c-.4,2.09.64,4,.59,6.1" transform="translate(29.03 -266.18)" />
		<path class="cls-3" d="M2261.05,503c2.65,2.59,2.9,2.59,5.65,0" transform="translate(29.03 -266.18)" />
		<path class="cls-3" d="M2195.06,471.27c-1.88,1.61-3.55-.49-5.35-.3" transform="translate(29.03 -266.18)" />
		<path class="cls-3" d="M2229.54,478.28l4.46,9.14" transform="translate(29.03 -266.18)" />
		<path class="cls-3" d="M2230.73,509.36c.74,1.65,1.89,3.18,1.49,5.18" transform="translate(29.03 -266.18)" />
		<path class="cls-3" d="M2235.49,458.17c.51,3.55,1.11,7.1,0,10.67a1.3,1.3,0,0,0,.26,1.52" transform="translate(29.03 -266.18)" />
		<path class="cls-3" d="M2242.32,500.83c-.29,1.49.88,3.53-1.48,4.26" transform="translate(29.03 -266.18)" />
		<path class="cls-3" d="M2265.21,476.45a5,5,0,0,0,.9,4.88" transform="translate(29.03 -266.18)" />
		<path class="cls-3" d="M2235.49,480.72c.4,1.6-1.87,3.38.29,4.87" transform="translate(29.03 -266.18)" />
		<path class="cls-3" d="M2226.57,508.14a5.67,5.67,0,0,1,2.38,4" transform="translate(29.03 -266.18)" />
		<path class="cls-3" d="M2213.79,475.23c.42,2.2-.77,4.23-.6,6.4" transform="translate(29.03 -266.18)" />
		<path class="cls-3" d="M2250.05,509.67c-.48,1.38-1.87,2.56-.89,4.26" transform="translate(29.03 -266.18)" />
		<path class="cls-3" d="M2204,469.75c-.71,1.33.22,3-.9,4.26" transform="translate(29.03 -266.18)" />
		<path class="cls-3" d="M2277.4,469.75c.09,1.44-.31,2.94.6,4.26" transform="translate(29.03 -266.18)" />
		<path class="cls-3" d="M2215.87,476.45a5.51,5.51,0,0,1-.3,4.27" transform="translate(29.03 -266.18)" />
		<path class="cls-3" d="M2281,490.47a3.57,3.57,0,0,1-3.86,1.22" transform="translate(29.03 -266.18)" />
		<path class="cls-3" d="M2220.62,494.43c-.48.78-1.67.3-2.09,1.49.22,1.78,1.63,3,3,4.28.67.62,1.67.93,1.47,2.15" transform="translate(29.03 -266.18)" />
		<path class="cls-3" d="M2233.7,463c.45,1.3.63,2.73,2.16,3.66a2.51,2.51,0,0,0,2.6-1.22" transform="translate(29.03 -266.18)" />
		<path class="cls-3" d="M2225.38,479.8a3,3,0,0,1-.3,4" transform="translate(29.03 -266.18)" />
		<path class="cls-3" d="M2254.22,507.84c-.87,1.22-1.94,2.33-2.09,4" transform="translate(29.03 -266.18)" />
		<path class="cls-3" d="M2280.08,488.94c-1.36.44-2.7.9-3.27,2.44" transform="translate(29.03 -266.18)" />
		<path class="cls-3" d="M2282.16,467.61c-1,1-1.62,2.18-.89,3.66" transform="translate(29.03 -266.18)" />
		<path class="cls-3" d="M2267,468.53c-.17,1.33-.16,2.81-2.08,2.74" transform="translate(29.03 -266.18)" />
		<path class="cls-3" d="M2214.08,469.14c.56,1,.27,3,2.38,2.13" transform="translate(29.03 -266.18)" />
		<path class="cls-3" d="M2275.32,479.19a3.85,3.85,0,0,0,3.57.92" transform="translate(29.03 -266.18)" />
		<path class="cls-3" d="M2204.27,491.69c-.77-1.23-1.51-2.5-3.27-2.14" transform="translate(29.03 -266.18)" />
		<path class="cls-3" d="M2205.76,471.88c2.68-.23,4,1.55,5,3.66" transform="translate(29.03 -266.18)" />
		<path class="cls-3" d="M2199.22,468.22c.41,1.09,1.61,2.11.3,3.35" transform="translate(29.03 -266.18)" />
		<path class="cls-3" d="M2258.38,493.82c1.07.26,2.1,1.05,3.27.3" transform="translate(29.03 -266.18)" />
		<path class="cls-3" d="M2242,496c.1,1.2-.78,1.77-1.49,2.44" transform="translate(29.03 -266.18)" />
		<path class="cls-3" d="M2215,503.88c.57.87,1.78.7,2.24,1.84l2.52-2.15" transform="translate(29.03 -266.18)" />
		<path class="cls-3" d="M2275,471.27a12.4,12.4,0,0,0-4.75,2.74" transform="translate(29.03 -266.18)" />
	</g>
	<path class="cls-1" d="M1596.88,705c0-.11,0-.22,0-.32-.37-1.64,2.52-3.61.7-4.37-2.31-1-5.25-2.16-7.91-.11a5.32,5.32,0,0,1-4.07,1.28c1-2,1.92-4,1.41-6.27-.54-2.45-2.21-3.68-4.66-4.62a4.7,4.7,0,0,1,5.71.35,6.61,6.61,0,0,0,7.65.86,17.9,17.9,0,0,1,3.55-.88c-.07-1.91-1.27-3.11-2.36-4.62,2.67-.22,4.81.82,5.83,2.69,1.15,2.09,2.75,2.3,4.54,2.48a11.76,11.76,0,0,1,7.06,3.56c1.34,1.25.86,1.87-.34,2.53a13,13,0,0,1-3.32,1.64,30,30,0,0,0-13.16,5.8Z" transform="translate(29.03 -266.18)" />
	<path class="cls-1" d="M1588.82,600.08c1.37,1.6,3.6,2.28,4.41,4.52.36,1,1.45.48,2.21.57a13.1,13.1,0,0,1,8,3.63c1.41,1.4,1,2-.35,2.79a18,18,0,0,1-7.8,2.8,6.68,6.68,0,0,0-5,2.41,4,4,0,0,1-4.13,1.64c0-.15-.14-.35-.08-.46,2-4.08,2-4.13-2.39-4.55-2.07-.19-4-.37-5.72,1.26a2.5,2.5,0,0,1-2.86.5c2.27-5.6,1.91-6.9-3.17-11.09a6.38,6.38,0,0,1,6.12,1.15c1.92,1.65,3.63,1.53,5.87.79,5-1.66,5-1.51,2.41-6Z" transform="translate(29.03 -266.18)" />
	<path class="cls-1" d="M1558.57,695.2c.41-.75.71-1.31,1-1.85,1.16-2,.41-2.89-1.66-3-2.58-.12-5.24-1-7.5,1.25a2.81,2.81,0,0,1-2.93.45c2.93-4.91,2.17-7.9-2.72-10.78,2.51-1.07,3.88-.83,6.88,1.21,1.21.83,8.56.3,9.2-.91,1-1.83-.94-2.88-1.85-4.64a6.35,6.35,0,0,1,6,3,4.06,4.06,0,0,0,3.67,2.15,11.52,11.52,0,0,1,7.43,3.4c1.64,1.5,1,2.16-.39,2.93a18.49,18.49,0,0,1-7.52,2.69,6.84,6.84,0,0,0-5.31,2.55A4,4,0,0,1,1558.57,695.2Z" transform="translate(29.03 -266.18)" />
	<path class="cls-1" d="M1602.72,640.09c1.83-4.6,1.82-4.57-3-5-1.77-.16-3.39-.17-4.85,1.17a3,3,0,0,1-3.15.69c2.39-5.77,2-7.16-3-10.92,2.92-.8,3.86-.59,7,1.54,1,.68,8.85,0,9.2-1,.66-1.88-1.06-3-2.14-4.79,2.88.15,5,1.23,6.34,3.32a3.59,3.59,0,0,0,3.15,1.88,12.24,12.24,0,0,1,8,3.66c1.24,1.26.94,1.86-.27,2.6a18.64,18.64,0,0,1-8.68,3,5.13,5.13,0,0,0-3.9,1.92C1606.14,639.42,1604.74,640.6,1602.72,640.09Z" transform="translate(29.03 -266.18)" />
	<path class="cls-1" d="M1635.18,655.34a15.19,15.19,0,0,1-9.31,4.17,7.13,7.13,0,0,0-5,2.4,4,4,0,0,1-4.11,1.66c0-.17-.16-.38-.1-.5,2-4,1.91-4.09-2.52-4.5-2.07-.2-4-.29-5.7,1.31-.7.66-1.65.77-3.07.5a7.84,7.84,0,0,0,1.42-6.15c-.55-2.35-2.1-3.75-5.18-4.6,3-1.09,5.06-.79,6.6.54,2.19,1.91,4.21,1.68,6.74.88,4.83-1.52,4.88-1.34,1.84-5.78a7.17,7.17,0,0,1,6.48,3.68,2.28,2.28,0,0,0,2.11,1.37A12.27,12.27,0,0,1,1635.18,655.34Z" transform="translate(29.03 -266.18)" />
	<path class="cls-1" d="M1586.25,662a6.81,6.81,0,0,1,6.11,3.18,3.85,3.85,0,0,0,3.46,2,12.1,12.1,0,0,1,7.71,3.6c1.21,1.23,1,1.88-.27,2.62a17.7,17.7,0,0,1-8.39,2.95,5.18,5.18,0,0,0-4.18,2,5.21,5.21,0,0,1-4.63,2.06c1.77-5.1,2.64-4.22-2.93-5.15-1.77-.3-3.4-.28-4.84,1.13a4.66,4.66,0,0,1-3.18,1c2.19-6.49,1.86-7.68-3.27-11.34,2.92-1,5.11.18,7.23,1.68,1,.73,8.62-.16,9.3-1.08.39-.52,0-1-.2-1.42C1587.68,664.22,1587,663.3,1586.25,662Z" transform="translate(29.03 -266.18)" />
	<path class="cls-1" d="M1552.6,632.2c2.37-6.24,1.91-7.89-3.23-11.22,2.91-1.17,5.07.08,7.18,1.54,1.11.77,8.49,0,9.28-1a1.24,1.24,0,0,0-.07-1.44c-.5-1-1.13-1.94-1.83-3.1a5.91,5.91,0,0,1,5.8,2.77,4.67,4.67,0,0,0,4,2.28,11.6,11.6,0,0,1,7.4,3.52c1.22,1.2,1,1.85-.22,2.61a18.1,18.1,0,0,1-8.37,3,5.18,5.18,0,0,0-4.21,2c-1.09,1.33-2.56,2.46-4.57,2,1.7-4.54,1.7-4.56-3.08-5-1.61-.16-3.2-.51-4.57,1A4.6,4.6,0,0,1,1552.6,632.2Z" transform="translate(29.03 -266.18)" />
	<path class="cls-1" d="M1538.06,631.24a6,6,0,0,1,6.07,2.94c1.06,1.79,2.34,2,4,2.15a11.54,11.54,0,0,1,7.14,3.4c1.36,1.26,1.19,2-.19,2.76a18.69,18.69,0,0,1-7.8,2.83,6.57,6.57,0,0,0-5.08,2.37,4.07,4.07,0,0,1-4.47,1.7c.28-.53.5-1,.75-1.42,1.44-2.48.51-3.37-2-3.43-2.39-.06-4.84-.94-6.88,1.26a2.5,2.5,0,0,1-2.84.42c1-1.92,1.92-3.84,1.38-6.15s-2.25-3.61-5-4.82a8.26,8.26,0,0,1,7.74,1.52c1.09.84,8.79.16,9.25-1C1540.83,633.94,1539.09,632.85,1538.06,631.24Z" transform="translate(29.03 -266.18)" />
	<path class="cls-1" d="M1622.43,685.86a12.83,12.83,0,0,1,.61-1.23c1.37-2.16,1.09-3.36-1.68-3.58-2.45-.2-4.87-.79-6.95,1.19-.72.69-1.68.59-3.07.72,1.13-2.28,2-4.21,1.45-6.52s-2.49-3.36-4.76-4.79a7.92,7.92,0,0,1,7.13,1.41c1.34,1,8.43.43,9.52-.67.6-.59.18-1.23,0-1.7a34.91,34.91,0,0,0-1.88-3.05c2.56-.08,4.67.87,5.77,2.76s2.68,2.25,4.51,2.47a11.93,11.93,0,0,1,6.84,3.33c1.62,1.49,1,2.18-.41,3a18.07,18.07,0,0,1-7.84,2.74,6,6,0,0,0-4.71,2.28A4.3,4.3,0,0,1,1622.43,685.86Z" transform="translate(29.03 -266.18)" />
	<path class="cls-1" d="M1549.56,654.59a6.69,6.69,0,0,1,6.09,3.15,3.72,3.72,0,0,0,3.46,2,11.55,11.55,0,0,1,7.68,3.56c1.34,1.26.9,1.91-.25,2.57a18.16,18.16,0,0,1-7.76,2.88c-2,.15-3.69.5-5.08,2.32a4.48,4.48,0,0,1-4.33,1.9c0-.23-.13-.45-.06-.59,2-4,2-3.91-2.19-4.45-2.16-.27-4.18-.72-6,1.21a2.87,2.87,0,0,1-3.06.62c.93-2,2.16-3.93,1.4-6.42s-2.43-3.53-4.71-4.5c2.78-1.29,5-.28,7.06,1.08,1.55,1,8.3.56,9.52-.63.6-.59.28-1.18,0-1.69C1550.9,656.68,1550.32,655.83,1549.56,654.59Z" transform="translate(29.03 -266.18)" />
	<path class="cls-1" d="M1560.9,649.85c.13-4.2,2.16-7,6.58-8.55,8.16-2.86,15.64-.73,22.59,3.84,1.59,1,2.6,1.39,4.27.16a14.93,14.93,0,0,1,7.8-2.72c.49,0,1.1-.1,1.34.47.32.75-.26,1.11-.77,1.49-5.89,4.32-6.27,6.23-2.34,12.64.68,1.12.69,1.68-.61,2-2.82.7-7.41-.95-8.52-3.64s-2.54-1.82-4-1a28.42,28.42,0,0,1-20.9,2.89C1562.32,656.32,1560.77,654.11,1560.9,649.85Z" transform="translate(29.03 -266.18)" />
	<path class="cls-1" d="M939.61,389.82l-5.36,18.65a1.63,1.63,0,0,1-2.06,1.14l-.26-.09c-1.23-.54-.32-1.81-1.53-2.16l-.26-.05h0c-1-.08-1.28,1.35-2.76.92a2.35,2.35,0,0,1-.37-.14c-1.16-.59-.85-1.95-1.73-2.2a.87.87,0,0,0-.32,0c-.83.06-1.54,1.23-2.4,1a1,1,0,0,1-.65-.53,2.42,2.42,0,0,1-.26-1.12L927,386.6c1.65-5.77,2.66-6.87,4.77-7,1.85-.08,2.23-2.46,2.29-3a.13.13,0,0,1,.14-.13c.78,0,4.7.14,4.43,1.31a4.23,4.23,0,0,0-.08,2.92,5.48,5.48,0,0,0,.6,1.05C940.38,383.5,941.34,383.78,939.61,389.82Z" transform="translate(29.03 -266.18)" />
	<rect class="cls-4" x="935.87" y="375.3" width="0.67" height="5.67" rx="0.07" transform="translate(343.28 907.33) rotate(-73.97)" />
	<path class="cls-4" d="M939.33,378.34l-5.9-1.69a.11.11,0,0,1-.07-.13l.86-3a.46.46,0,0,1,.56-.31l5.23,1.51a.45.45,0,0,1,.31.55l-.87,3a.09.09,0,0,1-.12.07Z" transform="translate(29.03 -266.18)" />
	<path class="cls-5" d="M932.87,380.65a3.81,3.81,0,0,0-2.71,1,2.83,2.83,0,0,0-.68,1.19c-1.27,3.93-5.32,18.52-5.44,18.92l-.27,1c-.14.35-.23.47-.19.64a.93.93,0,0,0,.87.6c.79-.06,1.27-1.9,1.47-2.71,2.11-8.34,3.44-13.62,5.48-17.86A28.22,28.22,0,0,1,932.87,380.65Z" transform="translate(29.03 -266.18)" />
	<path class="cls-6" d="M933.83,376.76s.77-3.32.75-2.62a16,16,0,0,1-.66,2.65Z" transform="translate(29.03 -266.18)" />
	<path class="cls-6" d="M938.71,378.16s.77-3.32.75-2.62a14.84,14.84,0,0,1-.66,2.65Z" transform="translate(29.03 -266.18)" />
	<path class="cls-6" d="M938,378s.67-3.35.75-2.62a10,10,0,0,1-.6,2.67Z" transform="translate(29.03 -266.18)" />
	<path class="cls-6" d="M935.12,377.13s1.2-3.2.75-2.62a10.6,10.6,0,0,0-.89,2.58Z" transform="translate(29.03 -266.18)" />
	<path class="cls-6" d="M937.3,377.76s1.11-3.23.75-2.62a15.18,15.18,0,0,0-.84,2.59Z" transform="translate(29.03 -266.18)" />
	<path class="cls-6" d="M934.38,376.92a15.2,15.2,0,0,1,.88-2.67,16.92,16.92,0,0,1-.78,2.7Z" transform="translate(29.03 -266.18)" />
	<path class="cls-6" d="M936.39,377.5s.75-2.87.9-2.67a13.39,13.39,0,0,1-.78,2.7Z" transform="translate(29.03 -266.18)" />
	<path class="cls-6" d="M935.7,377.3s.74-2.87.89-2.68a13.31,13.31,0,0,1-.78,2.71Z" transform="translate(29.03 -266.18)" />
	<path class="cls-7" d="M935.27,373.72a.39.39,0,0,0-.39,0,.67.67,0,0,0-.26.39,7.56,7.56,0,0,0-.27,1c-.05.25.34.36.39.11a4.81,4.81,0,0,1,.18-.65l.1-.33,0-.12a0,0,0,0,1,0,0C935.3,374.16,935.5,373.84,935.27,373.72Z" transform="translate(29.03 -266.18)" />
	<path class="cls-5" d="M937.74,381.94c-1-.38-1.24-.33-1.31-.23s.36.49.58,1.35a2.66,2.66,0,0,0,.26.92c.08.15.31.55.61.55.46,0,1-.9.72-1.38-.11-.24-.33-.25-.6-.62A1.83,1.83,0,0,1,937.74,381.94Z" transform="translate(29.03 -266.18)" />
	<path class="cls-8" d="M939.61,389.82l-5.36,18.65a1.63,1.63,0,0,1-2.06,1.14l-.26-.09s1.12-.82,1.21-1.29,6.21-22.82,6.31-23.85a7.78,7.78,0,0,0-.86-3.11.9.9,0,0,1,0-.56,5.48,5.48,0,0,0,.6,1.05C940.38,383.5,941.34,383.78,939.61,389.82Z" transform="translate(29.03 -266.18)" />
	<path class="cls-8" d="M930.14,407.31c-1-.08-1.28,1.34-2.76.92l-.37-.14c.3-.28.94-.6,1.37-1S929.75,407.05,930.14,407.31Z" transform="translate(29.03 -266.18)" />
	<path class="cls-8" d="M925,405.85c-.83.06-1.54,1.24-2.4,1a1.11,1.11,0,0,1-.66-.54,9.05,9.05,0,0,1,2.06-.81C924.36,405.35,924.74,405.67,925,405.85Z" transform="translate(29.03 -266.18)" />
	<path class="cls-1" d="M1723.86,711.29l10.06,16.59a1.64,1.64,0,0,1-.56,2.29l-.25.13c-1.22.54-1.54-1-2.61-.34a1.12,1.12,0,0,0-.22.16h0c-.77.71.12,1.84-1.2,2.65l-.35.17c-1.22.46-2-.69-2.79-.22a1,1,0,0,0-.24.21c-.52.65-.14,2-.9,2.44a1.08,1.08,0,0,1-.84.11,2.3,2.3,0,0,1-1-.57l-10-16.54c-3.11-5.13-3.23-6.62-1.87-8.23,1.2-1.41-.3-3.3-.67-3.73a.14.14,0,0,1,0-.19c.54-.57,3.28-3.36,4-2.37s1,1.61,2.08,2a5.94,5.94,0,0,0,1.18.27C1719.74,706.44,1720.6,705.92,1723.86,711.29Z" transform="translate(29.03 -266.18)" />
	<rect class="cls-4" x="1710.12" y="705.53" width="5.67" height="0.67" rx="0.07" transform="translate(-88.69 724.47) rotate(-31.24)" />
	<path class="cls-4" d="M1715.24,703.71l-5.25,3.18a.11.11,0,0,1-.14,0l-1.62-2.67a.46.46,0,0,1,.15-.62l4.66-2.82a.44.44,0,0,1,.61.15l1.62,2.67a.11.11,0,0,1,0,.14Z" transform="translate(29.03 -266.18)" />
	<path class="cls-5" d="M1712.55,710a3.76,3.76,0,0,0-1.13,2.64,2.92,2.92,0,0,0,.41,1.31c2,3.6,10,16.48,10.2,16.83l.52.85c.17.35.2.48.35.57a.93.93,0,0,0,1-.23c.49-.61-.54-2.21-1-2.91-4.7-7.21-7.67-11.78-9.4-16.15A29.3,29.3,0,0,1,1712.55,710Z" transform="translate(29.03 -266.18)" />
	<path class="cls-6" d="M1710.34,706.68s-1.92-2.82-1.41-2.33a16.17,16.17,0,0,1,1.5,2.28Z" transform="translate(29.03 -266.18)" />
	<path class="cls-6" d="M1714.69,704s-1.92-2.82-1.42-2.33a15.3,15.3,0,0,1,1.5,2.28Z" transform="translate(29.03 -266.18)" />
	<path class="cls-6" d="M1714.08,704.41s-2-2.77-1.42-2.33a9.64,9.64,0,0,1,1.55,2.25Z" transform="translate(29.03 -266.18)" />
	<path class="cls-6" d="M1711.49,706s-1.54-3.06-1.41-2.33a10.19,10.19,0,0,0,1.29,2.4Z" transform="translate(29.03 -266.18)" />
	<path class="cls-6" d="M1713.43,704.8s-1.61-3-1.41-2.33a15.23,15.23,0,0,0,1.33,2.38Z" transform="translate(29.03 -266.18)" />
	<path class="cls-6" d="M1710.84,706.38a15.31,15.31,0,0,1-1.37-2.46,16.48,16.48,0,0,1,1.45,2.4Z" transform="translate(29.03 -266.18)" />
	<path class="cls-6" d="M1712.63,705.29s-1.6-2.49-1.36-2.47a13,13,0,0,1,1.46,2.41Z" transform="translate(29.03 -266.18)" />
	<path class="cls-6" d="M1712,705.67s-1.59-2.49-1.35-2.47a13.6,13.6,0,0,1,1.46,2.41Z" transform="translate(29.03 -266.18)" />
	<path class="cls-7" d="M1709.09,703.56a.37.37,0,0,0-.25.3.71.71,0,0,0,.12.45,9.1,9.1,0,0,0,.51.85c.16.21.5,0,.35-.2a5,5,0,0,1-.35-.58l-.18-.3-.07-.1v0C1709.43,703.83,1709.33,703.47,1709.09,703.56Z" transform="translate(29.03 -266.18)" />
	<path class="cls-5" d="M1716.8,707.32c-.93.45-1.08.68-1,.8s.6.07,1.38.49a2.76,2.76,0,0,0,.85.44c.17,0,.62.14.82-.08s0-1.31-.52-1.47c-.25-.08-.41.08-.86,0A1.88,1.88,0,0,1,1716.8,707.32Z" transform="translate(29.03 -266.18)" />
	<path class="cls-8" d="M1723.86,711.29l10.06,16.59a1.64,1.64,0,0,1-.56,2.29l-.25.13s.17-1.38-.12-1.76-12.55-20-13.24-20.82a7.62,7.62,0,0,0-2.86-1.48,1,1,0,0,1-.45-.35,5.94,5.94,0,0,0,1.18.27C1719.74,706.44,1720.6,705.92,1723.86,711.29Z" transform="translate(29.03 -266.18)" />
	<path class="cls-8" d="M1730.28,730.12c-.77.71.12,1.85-1.2,2.65a2.26,2.26,0,0,1-.35.17c0-.41.19-1.09.17-1.7S1729.83,730.23,1730.28,730.12Z" transform="translate(29.03 -266.18)" />
	<path class="cls-8" d="M1725.7,732.92c-.52.65-.14,2-.9,2.44a1.07,1.07,0,0,1-.84.11,8.5,8.5,0,0,1,.8-2.06C1724.92,733,1725.41,733,1725.7,732.92Z" transform="translate(29.03 -266.18)" />
	<path class="cls-4" d="M1249.23,518.24c-.39,1.62-1.55,1.66-3.59,1.07a1.8,1.8,0,0,1-1.17-2.54v-.06s0,0,0-.05h0v0c.14-.35.27-.68.4-1l.07-.15.06-.15c0-.08.08-.18.12-.25l.11-.24a1.65,1.65,0,0,1,.1-.19c0-.07.08-.18.12-.25l.11-.21.21-.39a1,1,0,0,1,.1-.17,1.79,1.79,0,0,1,.13-.22.35.35,0,0,1,0-.08l.08-.07a9.34,9.34,0,0,1,.79-1.08l.15-.16c.05,0,.11-.11.16-.16l.07-.07.14-.13.14-.11a1.8,1.8,0,0,1,.8-.42h0a12.42,12.42,0,0,1,.88,3.45l-.27.44a1.47,1.47,0,0,0,.34,1.85A10.88,10.88,0,0,1,1249.23,518.24Z" transform="translate(29.03 -266.18)" />
	<path class="cls-1" d="M1256.71,537.53c-2.26,4.28-2.61,3.63-13.73.28l-1.78-.75h0c.25-.42.72-1.26,1.56-2.85a96.65,96.65,0,0,0,5.92-13.6,13.92,13.92,0,0,0,.55-2.38q.09-.68.12-1.35a13.73,13.73,0,0,0-.08-2.31,12.42,12.42,0,0,0-.88-3.45l2.5.53a8.28,8.28,0,0,1,1.4,4.56,5,5,0,0,0,0,1.55c.17.71.87.81,3,1.14,3.11.49,3.32.47,3.44-1.07a20.93,20.93,0,0,0-.66-4.67l0,0,2.22.47a3.55,3.55,0,0,1,.21.44,10.86,10.86,0,0,1,.46,5.65c0,.15,0,.3-.06.46C1260.24,524.4,1258.9,533.4,1256.71,537.53Z" transform="translate(29.03 -266.18)" />
	<path class="cls-5" d="M1248.68,520.61a96.13,96.13,0,0,1-5.92,13.6c-.83,1.59-1.32,2.44-1.55,2.85h0a0,0,0,0,1,0,0v0c-.09.08-.08-.35-.08-.53v0h0v-.09a.41.41,0,0,0,0-.12.28.28,0,0,1,0-.13c0-.05,0-.13,0-.2a.21.21,0,0,0,0-.11,1.66,1.66,0,0,0,0-.24c0-.08,0-.16,0-.24a116.33,116.33,0,0,1,1.68-13l.18-.86.12-.53c.06-.3.13-.59.2-.88l.09-.34c0-.23.12-.45.18-.66.15-.54.31-1.06.48-1.53q.15-.45.3-.84a1.82,1.82,0,0,0,1.18,2.54c2,.59,3.2.56,3.59-1.08A13.68,13.68,0,0,1,1248.68,520.61Z" transform="translate(29.03 -266.18)" />
	<path class="cls-4" d="M1255.22,518.9c-2.09-.32-2.79-.43-3-1.14.72.18,1.45.34,2.06.48a1.35,1.35,0,0,0,1.6-1,11.36,11.36,0,0,1,2.07-4.12,20.35,20.35,0,0,1,.66,4.67C1258.54,519.37,1258.33,519.39,1255.22,518.9Z" transform="translate(29.03 -266.18)" />
	<path class="cls-5" d="M1256.78,527.78c-.78.27-.5,1.68-1.4,4.14-.5,1.37-.78,2.1-1.55,2.66a6.14,6.14,0,0,1-2.7.88c-1,.11-1.6-.08-1.84.28s0,1.06.35,1.46a3.88,3.88,0,0,0,4.56.69,4.7,4.7,0,0,0,1.89-2.11c.82-1.4.49-1.74,1.35-4.22.64-1.82,1.12-2.51.73-3.15A1.34,1.34,0,0,0,1256.78,527.78Z" transform="translate(29.03 -266.18)" />
	<path class="cls-4" d="M193.42,758.12c-.5,2-2,2.1-4.52,1.36a2.28,2.28,0,0,1-1.48-3.2.09.09,0,0,0,0,0v0s0,0,0-.06v0c.17-.44.34-.85.5-1.24l.08-.2.08-.18c0-.11.1-.22.15-.31s.09-.21.14-.31l.12-.24c0-.08.1-.22.15-.31s.09-.18.14-.26.18-.34.27-.5l.12-.21.16-.27.06-.11.11-.09a11.06,11.06,0,0,1,1-1.36l.19-.2a1.84,1.84,0,0,1,.2-.19L191,750l.17-.16.18-.15a2.06,2.06,0,0,1,1-.52h0a15.06,15.06,0,0,1,1.1,4.34l-.33.55a1.86,1.86,0,0,0,.43,2.33C193.55,757,193.5,757.53,193.42,758.12Z" transform="translate(29.03 -266.18)" />
	<path class="cls-1" d="M202.83,782.4c-2.85,5.39-3.28,4.56-17.27.35l-2.25-1h0c.31-.51.91-1.58,2-3.58a120.35,120.35,0,0,0,7.46-17.11,18.21,18.21,0,0,0,.68-3,14,14,0,0,0,.16-1.7,17.67,17.67,0,0,0-.11-2.91,15.22,15.22,0,0,0-1.1-4.34l3.15.66s2,3,1.75,5.74a6.73,6.73,0,0,0,0,2c.21.89,1.1,1,3.71,1.43,3.92.61,4.18.59,4.33-1.35a26.42,26.42,0,0,0-.83-5.88l0,0,2.8.59a4,4,0,0,1,.26.56,13.67,13.67,0,0,1,.59,7.1c0,.19-.06.38-.09.58C207.27,765.88,205.58,777.2,202.83,782.4Z" transform="translate(29.03 -266.18)" />
	<path class="cls-5" d="M192.73,761.11a120.35,120.35,0,0,1-7.46,17.11c-1,2-1.65,3.07-1.94,3.59h0l0,0h0c-.11.11-.1-.44-.1-.66v0h0s0,0,0,0V781a.61.61,0,0,0,0-.15.49.49,0,0,1,0-.17c0-.05,0-.16,0-.25a.33.33,0,0,0,0-.14,2.64,2.64,0,0,0,0-.29l0-.31a144.55,144.55,0,0,1,2.12-16.36l.22-1.08.14-.67c.08-.37.18-.74.27-1.1l.11-.43c.06-.29.14-.56.22-.84.19-.67.39-1.32.6-1.92.13-.37.26-.72.39-1.06a2.28,2.28,0,0,0,1.48,3.2c2.56.75,4,.7,4.51-1.35A16.81,16.81,0,0,1,192.73,761.11Z" transform="translate(29.03 -266.18)" />
	<path class="cls-4" d="M201,759c-2.62-.41-3.5-.55-3.72-1.44.91.23,1.82.44,2.59.61a1.72,1.72,0,0,0,2-1.21,14.26,14.26,0,0,1,2.6-5.19,25.84,25.84,0,0,1,.83,5.88C205.13,759.55,204.87,759.57,201,759Z" transform="translate(29.03 -266.18)" />
	<path class="cls-5" d="M202.91,770.14c-1,.33-.62,2.1-1.75,5.2-.63,1.72-1,2.65-1.95,3.34a7.66,7.66,0,0,1-3.4,1.12c-1.28.13-2-.11-2.32.35s.06,1.33.45,1.84c1.12,1.47,3.82,1.85,5.73.86a6,6,0,0,0,2.38-2.66c1-1.75.61-2.19,1.7-5.3.8-2.3,1.4-3.16.91-4A1.68,1.68,0,0,0,202.91,770.14Z" transform="translate(29.03 -266.18)" />
</svg>
