<svg id="Calque_1" data-name="Calque 1" xmlns="http://www.w3.org/2000/svg" viewBox="0 0 2441.97 774.74">
	<defs>
		<style>
			.cls-1,.cls-2{fill:#3179c9;}.cls-2{stroke:#3179c9;stroke-linecap:round;stroke-linejoin:round;stroke-width:2px;}.cls-3{fill:#3a4797;}.cls-4{fill:#c0e1f2;}.cls-5{fill:#303e87;}.cls-6{fill:#fff;opacity:0.58;isolation:isolate;}.cls-7{fill:#03588c;}
		</style>
	</defs>
	<path class="cls-1" d="M-.44,676.86A408.6,408.6,0,0,1,211,771.13c18.25,15.64,35.66,33.25,57.91,42.35,39,16,86.11,1,115.68-29.06s43.7-72.51,48-114.46c1.81-17.51,3-37.18,16.12-48.9,15.2-13.58,38.62-9.81,58.33-15,44.25-11.64,62.53-65,100.16-91,58.48-40.45,159.09-13.46,192.09-76.45,6.84-13,9.12-28.13,16.24-41s22.17-23.69,36-18.58c9,3.32,14.4,12.1,21.17,18.83C890,415.05,919.16,418.59,940,406c23.39-14.06,35.5-44.71,61.66-52.5,31.66-9.44,62.27,22.2,69.3,54.48s-.46,65.94,2.49,98.84a156.9,156.9,0,0,0,27,74.78,180.28,180.28,0,0,0,25,28.75c9.63,9.05,20.07,17.18,30.18,25.69a513.33,513.33,0,0,1,114.6,137.39c7.61,13.31,14.83,27.23,26.08,37.66,26.35,24.44,66.69,23.45,102.55,21,69-4.77,146-13.37,190.48-66.41,15.49-18.48,26.55-42,47.61-53.7,23.71-13.22,52.88-7.73,80-9,31.28-1.48,61.24-12.41,90.62-23.22L1991.74,612c24.6-9,51.86-18.13,76.36-8.81,18,6.85,31.1,22.54,47.89,32,14.93,8.38,32.17,11.49,49.05,14.35q137.49,23.28,276.49,36v441.05H-.44Z" transform="translate(0.44 -351.84)" />
	<g id="MKg6fT.tif">
		<path class="cls-1" d="M900.23,395c-2.09-.57-3.4-3.1-2.18-4.68a13.2,13.2,0,0,0,2.57-7.4,5,5,0,0,1,2.17-3.85,8,8,0,0,0,3.14-5.16,7.68,7.68,0,0,1,2.85-5.11l.66-.5-.19-.57a39,39,0,0,0-3.74-2.05c-1-.45-2.23-.54-3.32-.89a1.82,1.82,0,0,0-2.31.75,2.39,2.39,0,0,0,.34,2.68,3.66,3.66,0,0,1,.71,3.63,2.51,2.51,0,0,1-2.42,2,6.16,6.16,0,0,1-2.1-3.88c-.53-3.41-2.23-4.09-5-4.51a19,19,0,0,0-3.3.06,6.36,6.36,0,0,0-1.54,6.5c.27.83.68,1.19,1.54,1.12a8,8,0,0,1,2.5.07,4.48,4.48,0,0,1,3.42,3.58,30.6,30.6,0,0,1,.8,9.33c0,.89-.07,1.82-1.38,1.75-1.85-1.47-2.08-3.88-2.92-6a30.14,30.14,0,0,0-1.68-4.18c-1.05-1.77-2.33-2-4.57-1a5.72,5.72,0,0,0-3.78,5.51l2.6,2a20.72,20.72,0,0,1,2.28,1.77c.76.73,1.39,1.69.67,2.76s-1.69.74-3-.12a12.54,12.54,0,0,1-2.05-1.95c-1.17-1.27-1.32-1.34-3.33-.83a38,38,0,0,0-1.43,4.3c-.28,1.35.41,2.1,1.66,1.84a7.28,7.28,0,0,1,4.78,1A17.68,17.68,0,0,0,885,394a3.79,3.79,0,0,0,2.09.29c2.13-.65,3.59.11,4.72,2s2.39,3.8,3.54,5.73a5.66,5.66,0,0,1,.37,1.46c-1.6,1-2.74.17-3.78-.82-1.43-1.37-2.79-.28-4.06.08-1,.3-1.39,1.54-1.37,2.72,0,2.66,1.51,3.86,4.47,3.67.82-.05,1.63-.18,2.44-.25a5.58,5.58,0,0,1,5.42,3.62A25.85,25.85,0,0,0,900.3,416c1.29,2.22,3.43,2.74,5.68,2.91l6.34-1.61c2-1.52,1.37-2.42.3-3.74a16.25,16.25,0,0,0-3.08-2.56c-.82-.62-1.72-1.13-2.59-1.7.49-2.51,2.39-3.15,4.08-3.89,1.89-.83,3.82-1.36,4.26-4a3.6,3.6,0,0,1,2.43-2.62,4,4,0,0,0,1.43-1.15c.65-.75.27-1.5-.33-2a4,4,0,0,0-6.05.79c-.44.68-.75,1.45-1.23,2.09-.86,1.17-1.8,2.28-2.61,3.3-2.61-.79-3.26-2.27-2.15-4.27a19.22,19.22,0,0,1,7.05-7.69,2.79,2.79,0,0,1,2.89-.25c3.32,1.86,5.86.09,8.4-1.6a12,12,0,0,0,2.81-2.5,11.81,11.81,0,0,0,1.18-2.89,29.49,29.49,0,0,0-2.63-1.95c-1.93-1.13-3.57-.51-4.32,1.51-.44,1.22-.69,2.6-2.06,3.12-.9.33-1.83.59-2.74.88l-.4-.39a14.24,14.24,0,0,1,.19-1.74c.37-1.56.75-3.12,1.24-4.64a6.12,6.12,0,0,1,1.19-2.17c2.88-3.11,2.06-6-2.07-7.24a8.88,8.88,0,0,0-5-.1,2.62,2.62,0,0,0-1.92,3.58c.28,1,.89,1.86,1.26,2.82.89,2.35,1.46,4.71.69,7.24-.44,1.41-1.08,2.33-3,2.28,0-.73-.08-1.47-.15-2.2s-.34-1.46-1.3-1.5c-2.14-.09-4.7,2.38-4.49,4.54a13.51,13.51,0,0,0,.92,2.73c.13.4.2.83.35,1.41a11.61,11.61,0,0,1-4.47,4.18" transform="translate(0.44 -351.84)" />
	</g>
	<g id="MKg6fT.tif-2" data-name="MKg6fT.tif">
		<path class="cls-1" d="M957.35,386.05c-1.52,1-3.7.34-3.89-1.29a10.46,10.46,0,0,0-2.7-5.73,4.1,4.1,0,0,1-.92-3.48,6.54,6.54,0,0,0-1.11-4.81,6.25,6.25,0,0,1-1.24-4.61l.09-.67-.43-.21a31.46,31.46,0,0,0-3.31,1.13c-.85.38-1.58,1.05-2.41,1.51a1.61,1.61,0,0,0-.9,1.84,1.82,1.82,0,0,0,1.71,1.3,2.75,2.75,0,0,1,2.46,1.6,2.15,2.15,0,0,1-.27,2.6,4.69,4.69,0,0,1-3.4-.9c-2.22-1.59-3.59-.94-5.43.53a16.2,16.2,0,0,0-1.87,2,5,5,0,0,0,2.79,4.58,1.06,1.06,0,0,0,1.51-.3,7.47,7.47,0,0,1,1.48-1.49,3.52,3.52,0,0,1,4-.07,22.75,22.75,0,0,1,5.72,4.75c.48.53,1,1.07.2,1.82-1.89.31-3.39-.91-5-1.57a22.27,22.27,0,0,0-3.32-1.32c-1.61-.36-2.49.27-3.21,2.21a4.75,4.75,0,0,0,.93,5.4l2.62-.48a18.14,18.14,0,0,1,2.3-.4c.85,0,1.75.1,1.95,1.14s-.55,1.45-1.77,1.74a9.62,9.62,0,0,1-2.28.15c-1.39,0-1.52.06-2.38,1.57a28,28,0,0,0,1.6,3.28c.59.93,1.42.93,2,0a6.23,6.23,0,0,1,3.33-2.34,18,18,0,0,0,1.92-.8,3.38,3.38,0,0,0,1.37-1.11,3.09,3.09,0,0,1,3.86-1.74c1.75.39,3.52.68,5.27,1.06a3.92,3.92,0,0,1,1,.59c-.36,1.53-1.48,1.77-2.63,1.84-1.59.11-1.77,1.55-2.29,2.52a2.08,2.08,0,0,0,.74,2.37c1.53,1.46,3.05,1.24,4.65-.67.44-.52.83-1.09,1.26-1.63a4.54,4.54,0,0,1,5.16-1.26,18.82,18.82,0,0,0,2.77,1c2,.47,3.52-.54,4.91-1.83l2.74-4.76c.28-2.05-.58-2.19-1.94-2.28a12.8,12.8,0,0,0-3.22.44c-.82.15-1.62.41-2.44.63-1.14-1.71-.41-3.23.15-4.68.62-1.61,1.42-3.09.19-4.83a3.07,3.07,0,0,1-.07-3,3.52,3.52,0,0,0,.17-1.52c-.05-.81-.69-1-1.33-.93a3.44,3.44,0,0,0-3,4.12c.12.65.37,1.28.46,1.93.17,1.18.26,2.38.37,3.44-2,1.15-3.16.71-3.65-1.09a16.23,16.23,0,0,1-.29-8.61,2.49,2.49,0,0,1,1.53-1.9c3-1,3.42-3.52,3.93-6a10.57,10.57,0,0,0,.2-3.12,9.14,9.14,0,0,0-1-2.33,24.26,24.26,0,0,0-2.61.5,2.34,2.34,0,0,0-1.62,3.48c.43,1,1.07,1.88.56,3-.32.74-.71,1.44-1.08,2.16l-.44,0a9.89,9.89,0,0,1-.87-1.09c-.67-1.11-1.34-2.21-1.91-3.37a4.9,4.9,0,0,1-.54-1.94c-.1-3.5-2.22-4.64-5.27-2.8a7.78,7.78,0,0,0-3,3,2.13,2.13,0,0,0,.92,3.18c.72.37,1.56.49,2.32.81a8.23,8.23,0,0,1,4.48,3.65,2.29,2.29,0,0,1-.43,3.1c-.44-.38-.88-.78-1.33-1.14s-1-.62-1.59-.06c-1.29,1.26-1.37,4.2,0,5.29a10.07,10.07,0,0,0,2.07,1c.31.15.59.34,1,.58a10,10,0,0,1-.21,5.07" transform="translate(0.44 -351.84)" />
	</g>
	<g id="qyG0xV.tif">
		<path class="cls-2" d="M504.2,594.67a16.1,16.1,0,0,0-3.47-11.51,8.87,8.87,0,0,1-1.53-2.9c-1-3.19-.32-6.23.92-9.18,1.86-4.4,2.24-8.91.21-13.33a14.08,14.08,0,0,1-.39-10.75,13.85,13.85,0,0,1,1.61-2.7l.82.92c.8,3.14,1.57,6.29,2.43,9.41a7.58,7.58,0,0,0,1.08,2.07c2.8,4.17,2.27,8.63.34,12.67-2.59,5.41-1.59,9.92,1.75,14.44,2.65,3.59,2.35,7.81,1.88,12,0,.14-.23.26-.49.53-4.32-1.93-8.77-1.49-13.22.36A17,17,0,0,0,491,586.22c-2.17-2.13-2.39-5.32-1.85-8.4.23-1.27.52-2.53.82-3.79a16.42,16.42,0,0,0-1.76-13c-2.41-3.89-1.83-8-.74-12.08.09-.35.54-.58.83-.86l1,.9a34.92,34.92,0,0,0,5.7,12.57c2.38,3.14,1.79,7.22.55,10.84-1.73,5.06-1.09,9.54,2.6,13.31a13.11,13.11,0,0,1,3.66,9.15" transform="translate(0.44 -351.84)" />
		<path class="cls-2" d="M494.39,597.4c-1.07-1.74-2.05-3.55-3.23-5.21-.7-1-1.8-1.64-2.57-2.58a11.06,11.06,0,0,1-2.31-10.2,16.32,16.32,0,0,0,.54-2.59c.37-4.1-.07-7.8-3.2-11-3.36-3.4-4.51-8.26-6.44-12.58l-.26,1.4c-1.56,4.14-1.61,8.37.83,12a19.21,19.21,0,0,1,2.93,15.73c-.92,4.14-.09,8.23,3.56,11.06,2.31,1.79,3.53,4.33,4.46,7.09a10.9,10.9,0,0,0,.65,1.33" transform="translate(0.44 -351.84)" />
		<path class="cls-2" d="M516.63,601.12l1.75-5.6c.15-2.1.29-4.2.44-6.3s.29-3.36,0-4.32a19.11,19.11,0,0,0-1.22-3.42c-2.26-4.46-3.29-8.91-.48-13.5a17.75,17.75,0,0,0,1.61-2.88c1-2.79,2.11-5.84.75-8.64-2-4-2.5-8.22-2.78-12.56a16.12,16.12,0,0,0-.55-2.51l-1.09.28c-2.51,4.41-3.38,9-1.74,14.08a14.37,14.37,0,0,1-1.45,11.47,17.69,17.69,0,0,0-2.47,7,8.57,8.57,0,0,0,1.22,5.6c3.46,5.57,3.06,11.42,1.18,17.35" transform="translate(0.44 -351.84)" />
		<path class="cls-2" d="M509.36,596.33l.53-.14,6.74,4.93a24.66,24.66,0,0,0,1.51,2.84,6.75,6.75,0,0,1,1.42,4.21l-32.86,2.58c-.4-3.61,1.23-6.54,3.27-9,1.72-2.08,6.17-5.06,6.17-5.06S504.14,593.51,509.36,596.33Z" transform="translate(0.44 -351.84)" />
		<path class="cls-2" d="M514.09,600l-7,.94" transform="translate(0.44 -351.84)" />
		<path class="cls-2" d="M517.53,603.63l-6.24.88" transform="translate(0.44 -351.84)" />
	</g>
	<path class="cls-1" d="M222.46,702.6l1.19,1a1.89,1.89,0,0,1-.88,2.6c-2.54,1.23-2.69,3.13-1.58,5.41a19,19,0,0,1,.76,2c.58,1.58,1.32,2.32,3.15,1.27,3.46-2,3.51-1.89,4.61,1.91.1.36.3.7.44,1.06a2,2,0,0,1-.21,1.59c-1.9,1.6-4.27,1.66-6.55,1.94-2.63.31-4.62,1.4-5.67,4-1.3,3.19-.81,4.32,2.53,5.12,1.06.25,2.08.4,2.17,1.73s-1,1.76-2,1.93c-1.84.32-2.77,1.42-3.68,3a2.28,2.28,0,0,1-4.21-.39c-.56-1.37-.24-3.24-2.13-3.8a10.48,10.48,0,0,0-6.45.39c-2.47.84-4.07,2.31-6.21,5.47l.23-.18c1.19-1.09,2.05-2.87,4.13-2.19a2.52,2.52,0,0,1,1.78,2.31c.17,2.17-1.38,3.18-2.94,4.16-.65.41-1.35.74-2,1.15-1.29.83-2.44,1.88-1.16,3.41,1.14,1.35,2.59.78,3.79-.15s1.66-2.5,1.77-4.11c.15-2.46.54-4.93,2.14-6.88,1.15-1.39,2.78-2.7,4.68-1.31s.87,2.89-.4,4.19c-.54.54-1.24,1.08-.34,1.87,1.65,1.48.12,2.78-.26,4.14a1.48,1.48,0,0,0,2-.75c2.35-4,7.1-5.38,9.81-9a1.74,1.74,0,0,1,2.75-.09c1.43,1.52,2.29,1.32,3-.57s1.05-3.85-1.5-4.76c-1.12-.4-2.3.09-3.45,0-1.59-.13-2.79-.84-2.82-2.57s1.1-2.5,2.77-2.43a10.81,10.81,0,0,0,3.45-.3,3.25,3.25,0,0,1,1.61,0c2.7.38,6.32-.36,5.09,4.73,1.16-.94.56-2.16,1.3-2.85a1.92,1.92,0,0,1,1.52-.45,4.24,4.24,0,0,0,2.28-.23c1-.46,2.2-1.31,3,.16s-.1,2.41-1.13,3.31c-.77.67-1.73,1.17-2,2.3.54,1.08,1.31.25,2,.17A1.89,1.89,0,0,1,241,733a2,2,0,0,1-.48,2.14c-.48.62-1.15,1-1.66,1.62-1,1.13,0,3.44-2.13,3.75s-2-2-3-3c-1.28-1.22-2.09-.39-2.52.92-.54,1.6.94,3.82-1.28,4.87-1.73.83-3.53-.44-5.34-.23-.38,0-.77,0-1.15.06a6.94,6.94,0,0,0-4.47,2.09c1.61-.25,2.64-2.3,4.54-1.66,2,1.87-.53,3.73,0,5.61a2.19,2.19,0,0,1-.47,1.54,34.33,34.33,0,0,0-17.78,4.92c-1.65,1-4.07.51-5.94,1.51-1.21.64-2.34,1.52-1.63,3s2.13,1.18,3.39.67a10,10,0,0,0,3.62-2.81c2.17-2.4,3.66-2.26,4.66.68.88,2.62,2.23,1.8,3.37.7a40.87,40.87,0,0,0,5.33-5.59c1.24-1.75,2.79-3,4.64-.73,1.18,1.43,2,.64,2.81-.23a7.9,7.9,0,0,0,2.42-5.14c.08-1.3.22-3,1.66-3.19,4.24-.58,8-2.38,11.94-3.86,1.25-.48,1.58.39,1.74,1.37a4.14,4.14,0,0,1-3.88,5.05c-2,.17-3.86.51-5.12,2.23-1.45,2-.81,3.46,1.6,3.79s3.93-1.14,4.9-3c1.42-2.75,2.66-5.54,5.07-7.67,1.19-1,1.13-2.39-.79-2.79-3.07-.63-2.81-2.45-1.8-4.63.28-.58.42-1.22.65-1.82.44-1.13-.07-3,1.5-3.25s1.95,1.34,2.28,2.6c.26.94.77.81,1.43.42s1.77-.32,1.95.48c.44,2,1,3.51,3.34,3.79.52.07.45,1.18.1,1.74-.74,1.19-1.09,1.9.56,2.93s.1,2-.93,2.49c-1.85.91-3.92,1.37-5.56,2.68-.72.57-1.51,1.43-.81,2.28s1.6.1,2.26-.52a4.2,4.2,0,0,0,.71-.91c.85-1.4,1.87-2.59,3.72-2.12,2,.52.64,2.41,1.09,3.49,1,.13,1.64-.43,2.39-.56,1.06-.19,2.13-.29,2.75.8s.09,2-.86,2.63a5,5,0,0,0-1.76,2.47c-.64,1.65-1.79,2.34-3.24,1-2.48-2.32-3.54-.34-4.74,1.39a3.46,3.46,0,0,1-3.94-.4,2.78,2.78,0,0,0-3.82.23c-1.45,1.28-1.36,2.31.55,3.07,2.94,1.17,4.69-1.32,7-2.17,2.09,1,1.79,4.27,4.52,4.64.2,0,.3.41.3.67.06,1.46-1,2.1-2.11,2.39-1.73.45-2.78,4.1-4.7,1.94-2.64-3-6.19-1.93-9.19-3-1.94-.66-3.61-.7-4.19-2.94-.74-2.87-2.57-3.44-4.95-2a67.83,67.83,0,0,1-7.75,3.46c-.94.41-1.93.93-1.74,2.24a1.45,1.45,0,0,0,1.31,1.23,1.9,1.9,0,0,0,2.26-1.63c.71-2.55,1.84-3.69,4.31-1.64.54.45,1.23.07,1.83-.16,1.5-.55,2.54-.29,2.69,1.54a4.7,4.7,0,0,0,.89,2.1c1.49,2.44,1,3.23-1.86,3.59-1.19.14-2.69-.52-3.34,1.14a.9.9,0,0,0,.37,1c1.5.93,2.7,0,3.9-.72a10.16,10.16,0,0,0,2.77-2.66c.81-1.05,1.29-2.86,3.18-2,1.68.74,1.15,2.36,1.05,3.89,1.47-.09,2.21-1.17,3.11-2s1.75-2.25,3.21-1.53a4.36,4.36,0,0,1,2.42,3.31c.19,1.68-1.53,1.79-2.63,2.35-.34.17-.75.27-.72,1.08a5.49,5.49,0,0,0,6.39-1.87,4.61,4.61,0,0,1,3.12-2.08c.87-.08,2,.66,1.66,1.08-2.34,3,4.11,4.33,1.34,7-1,1-2.5,1.44-3.52,2.73s-2.55.25-3.71-.61c-1.5-1.12-2.87-1.81-4,.53-1.5,3.05-2.92,1.74-4-.34-1.31-2.59-3.24-3.59-6-2.76-1,.31-2.59.25-2.53,1.82,0,1.19,1.27,1.49,2.28,1.76.37.1.76.13,1.14.22,2.13.5,3.4,1.45,1.87,3.76-.55.82-.94,1.68,0,2.37,1.14.84,2,0,2.56-.85,1.2-1.77,2.28-3.63,4.89-2.13a.55.55,0,0,0,.68-.18c.76-.93,1.43-3.24,2.47-2.32,1.95,1.72,5,1.26,6.39,3.71a3.58,3.58,0,0,1-3.1,2.56c-2.66.38-5.1.74-5.49,4.22-.13,1.14-1.56,1.11-2.63,1s-2-.8-2.93.1c-.1,1.33,1.2,1.54,1.84,2.25s1.5,1.61.83,2.71a2.36,2.36,0,0,1-3,1.1c-2.88-1.34-6.12-2.38-6.72-6.25a5.94,5.94,0,0,0-2.81-4.42,5.85,5.85,0,0,1-2.32-3c-1-2.61-1.83-5.11-5.71-3.94-1.79.54-2-1.48-2.19-2.92A9.55,9.55,0,0,0,211,770.68c-.8.05-1.62.13-1.82,1.06s.44,1.43,1.13,1.83a8.64,8.64,0,0,0,4.89.73c2.17-.09,3.34.65,2.1,3a4.27,4.27,0,0,0-.83,2.14c.15,2.51-1.06,3.51-3.63,3,1.86,4,3.76,4.65,6.95,2.53,2.18-1.45,4-2.25,4.72,1.3.24,1.11,1.35,1.08,2.24,1.08,2.38,0,3.27,1.13,2.79,3.44a4.71,4.71,0,0,0,.31,2.28c.25.87.52,1.83-.45,2.43a2.08,2.08,0,0,1-2.53-.25c-1.93-1.59-5.35-.26-6.53-3.42-.2-.52-1.24-.49-1.6.22s.22,1.26.8,1.5c2.4,1,3.31,2.3.88,4.49,1.59.14,2.19-.87,3.06-1.35s2.8-.73,2.74-.13c-.38,3.63,5.32,2.21,4.6,5.84a2.08,2.08,0,0,1-.26.72c-.79,1.31-9,2.73-10.23,1.72-2.58-2.08-4.87-4.54-8-5.92-1.09-.48-1.09-1.61-1.14-2.68-.13-3-.5-5.81-4.23-6.8-1.82-.48-1.64-2.32-1.31-4,1.06-5.17,0-7.64-4.76-10.54-3.53-2.16-6.85-1.22-10.86,1.45,2.7,0,5.41-3.07,6.28,1.11.09.47,1.13-.12,1.71-.31,1.57-.5,3.19-.75,4.06,1,1,2.12-1.13,2.45-2.32,3.43,1.36,1,3.86,1.28,2.29,3.84,3,.68,2.54,4.27,4.79,5.57,1.19.7,2.13,1.7,1.59,3.16-.66,1.81-2.18.57-3.32.77-2.2.38-3.78.11-4.29-2.44a1.73,1.73,0,0,0-2.57-1.46c-1.22.44-2.87.1-3.12-.82-1.16-4.19-5.06-4.72-8-6.54l-18.21-15.3a6.59,6.59,0,0,1-2.26-3.06,3.68,3.68,0,0,0-2.24-2.51c-2.76-.73-5.3-1.49-4.8-5.23.09-.68-.7-1.15-1.35-1.13-3.24.08-3.53-2.13-3.83-4.55-.13-1-.9-2,.28-2.74a2,2,0,0,1,2.81.38c1.48,2.63,5.46,1.1,6.56,4.16,2-.8,3.72-.76,4.31,2.09,1.15-1.46.89-3.79,3.16-3.21,1.92.49,2,2.08,1.86,3.73-.06.68-.73,1.81.34,2,3.82.52,1.57,3,2,4.73a8.3,8.3,0,0,0,.8-7.52,9.42,9.42,0,0,0-12.3-5.27c-2.17.93-3.86,1.17-5-1.5-1.09-2.47-3.63-2.33-5.69-2.1-2.26.26-4,.39-5-2.12-.34-.86-1.32-1.25-2.1-1.65-5.22-2.67-5.22-7.39-4.9-12.25a2.16,2.16,0,0,1,1.81-2.2c1.08-.23,2.07-.12,2.57,1.09.25.59.24,1.69.69,1.72,5.74.37,2.8,3.85,2.23,6.86,1.92-2.8,3.38-2.25,4.77,0,.39.63,1.17,1.24,1.83.26a1.06,1.06,0,0,0-.59-1.59c-3.58-.66-2.28-4.83-4.67-6.34a1.31,1.31,0,0,1-.1-1.79c1.78-1.62,4.17-.35,6.23-1.14,1.17-.45,1.79.78,2,1.85a3,3,0,0,0,2.91,2.86c2.59.45,1.43,2.48.71,4-1.32,2.67-.67,4.78,1.76,6.29.78.49,2,1.13,1.85-1-.11-1.58,5-5.09,6.41-4.62,1.19.4,1.28,1.5,1.37,2.54a7.19,7.19,0,0,0,1.7,4.62c.54.57,1.25,1,2.05.49.61-.4.52-1.08.45-1.74-.68-5.78-4.65-9.17-10.53-8.91-2,.09-3.39-.45-3-2.78s-1-3.07-2.79-3.4a10.76,10.76,0,0,1-6.45-3.18,3.55,3.55,0,0,0-2.86-1c-3.42.23-5.47-1.73-7.33-4.2-1.11-1.49-1.86-3.05-.37-4.48s2.56.08,3.65.94c.49.39.89,1,1.69.77.82-.84.2-1.66-.13-2.44-.79-1.83-.69-3.26,1.5-4,1.88-.59,2-2.14,2-3.75-.06-2-.09-3.92,1.86-5.15,2.91.62,2.37,4.43,5,5.37.17.07.24.63.1.72-3.13,1.88-.28,6.12-3.23,8.13-.81.54-1.55,1.63-.62,2.65s1.81.24,2.63-.45c1.92-1.65,3-.57,3.79,1.25a6.29,6.29,0,0,0,1.46,2.68c.87.73,1.58.68,2.16-.4a5.35,5.35,0,0,0-2.18-7c-3.69-1.73-3.71-1.74-1.56-5a2.07,2.07,0,0,0-.53-3.05c-2-1.67-2.95-3.25-.34-5.24.73-.56.3-1.76.71-2.55.75-1.44,1.84-1.93,3-.52.63.78.78,2,2.23,1.08,1-.59,2.28-1.19,3.11.08s.17,2.76-.82,3.84c-2,2.13-2.53,4.39-.88,7.47,1.32-1.71.69-6,4.55-3.65,5.14,3.1-1.41,4.94-.55,7.84,1.21-.38,2.87-1.36,3.94.45,1.16,2-.76,2.69-1.7,3.77a8.59,8.59,0,0,0-2.53,5.49,1.39,1.39,0,0,0,1.34,1.59c1.06,0,1.12-.87,1.1-1.66s-.32-1.53-.32-2.3c0-2.21,1.09-3.46,3.09-2.06,1.43,1,4.44-.57,4.32,2.07-.09,2,1,3.24,1.55,4.84.45,1.44-1.07,1.83-2,2.38s-1.75,1.19-1.41,2.44a1.49,1.49,0,0,0,1.7,1.24c1.25-.2,1.54-1.29,1.76-2.29a52.24,52.24,0,0,1,2-7.86c1-2.52.34-4.35-2.69-4.65-2.22-.22-2.82-1.49-3.71-3.54-1.24-2.85-1.07-6.65-4.47-8.45a1.58,1.58,0,0,1-.58-2.36,15.06,15.06,0,0,0,2.05-4.11c.34-.89,1.7-1.75,2.06-1,1.21,2.4,4.07,1.84,5.54,3.55.08,1.86-1.69,3.17-1.5,5.06.13,1.29.36,2.58,1.54,3.35.81.52,1.47,0,1.93-.66.85-1.24,1.28-2.56.08-3.83s-1.91-2.4-1.36-4.1c1.78-1.63,3.1-3.2.32-5.21-1.24-.89-.78-2.08.32-2.89.82-.62,1.78-1.06,2.27-2s1.2-2.15,2.64-1.62,1.32,1.75,1.23,3c-.05.63-.39,1.24-.13,1.93,1.16.52,2.81-1.38,3.66.61.76,1.76-.21,3-1.54,4a3.36,3.36,0,0,0-.81.83c-.5.79-1,1.77,0,2.36s1.66-.36,2.13-1.14a13.35,13.35,0,0,0,1.26-4c.7-3.09.7-3.12,3.66-2,.67.25.9-.16,1.24-.49,1.65-1.6,2.84-1.58,3.56.87.29,1,1.26.62,2,.66,1.47.07,2.69.41,2,2.3-.53,1.48.63,1,1.23,1.12,1.08.14,2.26.34,2.45,1.5.27,1.61-1.36,1.59-2.31,2.09a23.58,23.58,0,0,0-2.38,1.27c-2.07,1.42-3.75,1.62-4.85-1.18-.71-1.81-2.08-1.64-2.86-.22-1.58,2.85-4.19,4.47-6.64,6.36-1.56,1.21-2.78,2.76-2.22,5,.26,1,.58,2,1.79,2.29a2.58,2.58,0,0,0,2.35-1.09,5.36,5.36,0,0,0,1.26-5.05,3.53,3.53,0,0,1,2.55-4.52c1-.35,2-.85,2.95-.17,1.16.87-.1,1.84-.1,2.76,0,3-2.25,6.21,1.1,9.15,1.78,1.57.13,4-2.76,4.29-2.31.21-4.73,0-6.37,2.11-1,1.25-2.61,2.4.09,3.87,1.79,1,1.08,2.63-.12,3.91s-2.73,1.94-2.43,4.35c2.32-1.17,3.47-3.08,4.72-4.75a11.68,11.68,0,0,1,8.89-4.78c1.53-.13,3.18,0,4.51-.9,1.55-1,3.19-2.21,1-4.19-.49-.44-1.16-1.22-.88-1.6,1.63-2.23,1.35-4.12.15-6.6-.71-1.49,1.76-1.66,3-2.13,4.34-1.61,4.41-1.56,4.19,3-.05,1.07-.56,2.29,1.26,3.43a19.53,19.53,0,0,0-2.7-11.48c-.66-1.12-1.67-2-.79-3.46,1-1.57,2.35-1.3,3.75-.69S220.94,702.24,222.46,702.6Z" transform="translate(0.44 -351.84)" />
	<g id="rnXYp7.tif">
		<path class="cls-1" d="M1300.43,778.77c.38,3.1,2.27,4.55,5.16,5.53,2.63.9,6.2.64,7.44,4.38l-3.82,2.27c-3.13,4.11-2.52,6.57,2.94,9.47a24,24,0,0,1,3.08,1.86c3.39,2.48,3.16,3.78,0,6.61-1.84,1.62-3,4-4.21,5.79,2.77,7.3,6.66,12.7,12.57,16.86a11.2,11.2,0,0,0,11.07,1.5,7.91,7.91,0,0,0,2.46-1.24c6.69-5.72,14.52-5.69,22.64-4.85a27.15,27.15,0,0,0,8.38-.52c2.1-.44,4-1.79,5.65-2.57.11-3.5.19-6.22.3-9.65,1.36-.56,3.09-2,4.56-1.73,3.3.51,5.71-.1,7.51-3.86-.82-2-1.93-4.56-3-7.16a3.68,3.68,0,0,1,1.73-5.18c2.5-1.41,5-2.77,7.28-4,.23-7.75-3.91-11.88-9.3-9.32-2.64,1.26-4.63,4-6.71,6.31-1.51,1.65-1.73,4.61-5.1,4.67-.94-1.48-1.68-3.2-2.92-4.39-.85-.82-2.4-.9-3.57-1.3-3.57,1.11-3.53,4.49-4.47,7.16-.82,2.35-1.77,4.3-4.35,4.73-.77-.26-1.56-.29-2-.7-3.52-3.45-4.63-3.6-7.56-.84-2.06,1.93-1.62,5,1.1,7.79.32.33.51.93.88,1.07,2,.73,3.94,1.36,6,2,1.14,2.61,1.44,5-1.7,6.42-6.75-1-6.48-.24-9.21,5.18-1.3,2.57-5.45,4.84-8.06,4.32-2.79-.56-4.21-2.19-3.91-4.73,1.79-2.21,3.91-4.09,5.06-6.45,1.87-3.83.3-7-3.6-8.6-5.33-2.21-6.52-4.89-4.84-10.27a27.34,27.34,0,0,0,1.34-6.55c.22-4-2.41-7.33-6.48-8.77-3.61-1.28-3.74-1.41-5.38-5.22,1.29-.89,2.6-1.78,3.9-2.69,2-1.43,3.31-3.73,2.18-5.71a8.56,8.56,0,0,0-5.29-3.43c-3.73-.76-3.81-.45-5.16-4.35,2.35-2.54,6.59-3.61,6.61-8.93-3.68-.53-7.34-1.62-10.91-1.38-2.59.18-3.59-.83-4.56-2.55s-1.72-3.68-2.76-5.42c-2-3.3-8.3-5.17-11.58-3.47a7,7,0,0,0-3.58,6.17c-.11,2.3,1.66,3.83,4,4.77a26.62,26.62,0,0,1,6.87,4c1,.82,1.2,2.66,1.81,4.15l-6.62,1.8c-1.58,3.53-.39,5.89,3.64,7.56a69.79,69.79,0,0,1,8.23,3.66c1.46.84,2.44,2.5,3.67,3.83l-7.21,5.6" transform="translate(0.44 -351.84)" />
		<path class="cls-1" d="M1287.83,778.27l-5.73-.75c-1.14-3.55-.21-7.92-4.56-9.14-1.45-.41-3.33.74-5,1.17l-.44,1.27c1.26,1.7,2.45,3.44,3.78,5.08,3.23,4,3.18,5-.18,9.48.88,1.61,1.6,3.87,3.06,5.42,3.73,3.94,4.06,5.39,1.16,10-3,4.75.31,13.22,5.79,14.71,2.41.65,5.11-.76,6.13-3.72a25.41,25.41,0,0,1,5.61-9.75c1.23-1.28,2-4.76,1.15-5.87-1.33-1.74-4.18-2.32-6.68-2.94-2.07-.86-2.33-2.55-1.36-4.53,2.74-5.63,2.65-6-2.34-10.26" transform="translate(0.44 -351.84)" />
		<path class="cls-1" d="M1269.07,755.51l-2.82,1.74-.86-.37.8-4.47c3.88,2.69,7.18,5,10.54,7.29,2.26,1.51,4.93.39,6.18-2.45-3.3-4.32-5.3-4.63-11.37-1.74" transform="translate(0.44 -351.84)" />
		<path class="cls-1" d="M1348.51,771.77l1,3.22" transform="translate(0.44 -351.84)" />
		<path class="cls-1" d="M1349.15,750.15l-3.47,2.85.6,1.43,5.29.31.6-1.31-2.65-3.16" transform="translate(0.44 -351.84)" />
		<path class="cls-1" d="M1337.53,755.33l-2.81.39-1.55,4.63,5.19,3c4.2-3.41,4.09-4.64-.46-7.89" transform="translate(0.44 -351.84)" />
		<path class="cls-1" d="M1352.84,766.21a3.85,3.85,0,0,1-1.36.35c-4.88-.59-6.2.8-7.6,5.31-1,3.22.48,5.33,2.69,7s6.84,1,9.47-1.3c3-2.61,2.44-6.9-1.22-9.89l-1.61-1.36" transform="translate(0.44 -351.84)" />
		<path class="cls-1" d="M1275.26,741.92l-3.16,1.92c1.6,2.73,3,1.63,5.41.09l-1.88-1.88" transform="translate(0.44 -351.84)" />
	</g>
	<g id="rnXYp7.tif-2" data-name="rnXYp7.tif">
		<path class="cls-1" d="M1447.49,788.34c1.75,2.59,4.09,3,7.11,2.57,2.75-.4,5.81-2.27,8.62.5l-2.36,3.76c-.91,5.09.75,7,6.93,7.08a26.84,26.84,0,0,1,3.59.25c4.15.67,4.54,1.93,3,5.91-.9,2.29-.81,5-1.11,7.08,5.8,5.23,11.73,8.26,18.88,9.26a11.19,11.19,0,0,0,10.53-3.72,7.77,7.77,0,0,0,1.62-2.23c3.35-8.14,10.33-11.69,17.94-14.65a27.49,27.49,0,0,0,7.22-4.28c1.66-1.35,2.75-3.42,3.85-4.86l-4.14-8.73c1-1.12,1.86-3.15,3.27-3.62,3.17-1,5-2.7,4.92-6.87l-6-5a3.7,3.7,0,0,1-.82-5.41c1.58-2.39,3.21-4.75,4.65-6.89-3.33-7-8.91-8.78-12.53-4-1.77,2.33-2.28,5.7-3.09,8.67-.6,2.16.56,4.9-2.41,6.49a22.76,22.76,0,0,0-4.6-2.58c-1.13-.34-2.55.29-3.77.48-2.67,2.61-1.09,5.61-.7,8.41.34,2.46.38,4.63-1.72,6.19a5.74,5.74,0,0,1-2.08.28c-4.7-1.46-5.76-1.09-7.11,2.7-1,2.66.82,5.17,4.53,6.43.44.15.88.6,1.28.56,2.06-.24,4.12-.6,6.23-.92,2.2,1.8,3.55,3.78,1.41,6.49-6.47,2.18-5.87,2.75-5.83,8.81,0,2.88-2.64,6.8-5.19,7.52-2.75.78-4.75,0-5.64-2.42.57-2.79,1.61-5.43,1.55-8.05-.08-4.26-2.92-6.35-7.13-6-5.75.47-8-1.37-9-6.93a27.16,27.16,0,0,0-1.8-6.43c-1.62-3.66-5.49-5.43-9.77-4.85-3.79.51-4,.45-7.16-2.19.73-1.37,1.49-2.77,2.23-4.18,1.17-2.19,1.25-4.82-.66-6.06a8.55,8.55,0,0,0-6.27-.65c-3.67,1-3.6,1.34-6.58-1.51.93-3.34,4.21-6.22,1.8-11-3.5,1.21-7.26,1.91-10.33,3.75-2.22,1.34-3.57.89-5.22-.19s-3.21-2.49-4.93-3.56c-3.27-2-9.75-.81-11.89,2.2a7,7,0,0,0-.37,7.12c1,2.09,3.23,2.65,5.76,2.41a27,27,0,0,1,7.93.4c1.27.27,2.28,1.82,3.5,2.87l-5.07,4.62c.21,3.87,2.35,5.42,6.69,5.07a69.72,69.72,0,0,1,9-.5c1.67.08,3.3,1.11,5,1.73l-3.85,8.28" transform="translate(0.44 -351.84)" />
		<path class="cls-1" d="M1436,793.65l-5.43,2c-2.64-2.64-3.81-7-8.23-6.06-1.48.3-2.63,2.18-3.93,3.34l.18,1.33c1.89.94,3.75,1.94,5.67,2.79,4.72,2.1,5.1,3,4.18,8.52,1.52,1,3.18,2.72,5.19,3.43,5.12,1.8,6.08,2.94,5.58,8.32-.53,5.61,6.3,11.62,11.87,10.45,2.44-.52,4.19-3,3.75-6.11a25.46,25.46,0,0,1,.54-11.24c.51-1.69-.4-5.14-1.66-5.74-2-1-4.77-.16-7.28.42-2.23.19-3.23-1.19-3.28-3.4-.13-6.26-.39-6.58-6.76-8.06" transform="translate(0.44 -351.84)" />
		<path class="cls-1" d="M1409,782l-1.71,2.84-.94.06-1.32-4.34c4.68.62,8.69,1.21,12.71,1.68,2.69.31,4.56-1.91,4.37-5-4.91-2.35-6.82-1.71-10.91,3.64" transform="translate(0.44 -351.84)" />
		<path class="cls-1" d="M1487.07,760.17l2.34,2.41" transform="translate(0.44 -351.84)" />
		<path class="cls-1" d="M1477.76,740.64l-1.78,4.12,1.18,1,4.85-2.14-.06-1.44-3.8-1.6" transform="translate(0.44 -351.84)" />
		<path class="cls-1" d="M1469.79,750.55l-2.32,1.64.74,4.82,6,.29c2.19-4.95,1.52-6-4-6.81" transform="translate(0.44 -351.84)" />
		<path class="cls-1" d="M1488.38,753.25c-.34.32-.64.78-1,.93-4.63,1.7-5.16,3.54-4.34,8.19.58,3.32,2.85,4.53,5.58,5,2.91.53,6.56-2.23,7.84-5.48,1.46-3.67-1-7.25-5.6-8.24-.69-.15-1.37-.32-2-.48" transform="translate(0.44 -351.84)" />
		<path class="cls-1" d="M1408.27,767.05l-1.94,3.15c2.67,1.69,3.41.08,4.86-2.39l-2.54-.82" transform="translate(0.44 -351.84)" />
	</g>
	<path class="cls-1" d="M1166.52,589.46a1.71,1.71,0,0,0,0-.32c-.39-1.69,2.66-3.72.73-4.49-2.43-1-5.52-2.23-8.33-.11a5.7,5.7,0,0,1-4.28,1.31c1-2.11,2-4.11,1.48-6.45-.57-2.52-2.33-3.78-4.91-4.75a5.05,5.05,0,0,1,6,.36,7.1,7.1,0,0,0,8.06.89A20.62,20.62,0,0,1,1169,575c-.06-2-1.33-3.19-2.48-4.74,2.81-.23,5.07.84,6.15,2.76,1.2,2.15,2.88,2.37,4.78,2.55a12.55,12.55,0,0,1,7.44,3.66c1.4,1.29.89,1.92-.37,2.6a13.55,13.55,0,0,1-3.5,1.68,32.06,32.06,0,0,0-13.86,6Z" transform="translate(0.44 -351.84)" />
	<path class="cls-1" d="M1158,481.69c1.45,1.64,3.8,2.34,4.65,4.64.38,1,1.53.5,2.33.6a13.93,13.93,0,0,1,8.44,3.72c1.48,1.45,1,2.08-.37,2.87a19.39,19.39,0,0,1-8.21,2.88,7.1,7.1,0,0,0-5.28,2.47,4.25,4.25,0,0,1-4.35,1.69c0-.16-.15-.36-.09-.47,2.16-4.2,2.1-4.25-2.52-4.68-2.17-.2-4.23-.38-6,1.29a2.67,2.67,0,0,1-3,.52c2.39-5.75,2-7.09-3.35-11.4a6.88,6.88,0,0,1,6.46,1.18c2,1.7,3.82,1.58,6.18.81,5.27-1.7,5.32-1.54,2.53-6.12Z" transform="translate(0.44 -351.84)" />
	<path class="cls-1" d="M1126.17,579.44c.44-.77.75-1.34,1.08-1.9,1.22-2.06.43-3-1.76-3.06-2.71-.12-5.51-1-7.89,1.28a3,3,0,0,1-3.09.47c3.09-5,2.29-8.12-2.87-11.08,2.65-1.1,4.1-.85,7.25,1.24,1.27.85,9,.31,9.69-.94,1-1.88-1-3-1.94-4.76a6.76,6.76,0,0,1,6.35,3.07,4.26,4.26,0,0,0,3.86,2.21,12.24,12.24,0,0,1,7.83,3.5c1.73,1.54,1.08,2.22-.41,3-2.5,1.32-5,2.57-7.92,2.76a7.26,7.26,0,0,0-5.6,2.63A4.27,4.27,0,0,1,1126.17,579.44Z" transform="translate(0.44 -351.84)" />
	<path class="cls-1" d="M1172.68,522.81c1.93-4.73,1.92-4.69-3.21-5.16-1.87-.16-3.58-.17-5.11,1.21a3.23,3.23,0,0,1-3.32.7c2.51-5.92,2.1-7.36-3.18-11.22,3.07-.82,4.07-.6,7.33,1.58,1,.7,9.32,0,9.69-1.05.7-1.94-1.11-3-2.26-4.93,3.05.16,5.28,1.27,6.69,3.42a3.78,3.78,0,0,0,3.32,1.92,13.07,13.07,0,0,1,8.41,3.77c1.3,1.29,1,1.9-.3,2.66a19.94,19.94,0,0,1-9.13,3.1,5.46,5.46,0,0,0-4.12,2C1176.28,522.12,1174.8,523.33,1172.68,522.81Z" transform="translate(0.44 -351.84)" />
	<path class="cls-1" d="M1206.87,538.48c-2.68,2.68-6.15,3.83-9.8,4.29a7.53,7.53,0,0,0-5.29,2.47,4.26,4.26,0,0,1-4.33,1.7c0-.17-.17-.39-.11-.51,2.08-4.15,2-4.2-2.65-4.63-2.18-.2-4.24-.3-6,1.34-.73.69-1.73.8-3.23.52,1.29-2,2-4,1.5-6.32s-2.22-3.85-5.46-4.72c3.18-1.12,5.33-.82,7,.55,2.31,2,4.44,1.72,7.1.91,5.09-1.57,5.15-1.39,1.94-5.94a7.58,7.58,0,0,1,6.83,3.77,2.38,2.38,0,0,0,2.22,1.41A13,13,0,0,1,1206.87,538.48Z" transform="translate(0.44 -351.84)" />
	<path class="cls-1" d="M1155.33,545.31c3,.06,5.17,1.2,6.44,3.26a4.1,4.1,0,0,0,3.65,2,12.79,12.79,0,0,1,8.11,3.7c1.28,1.27,1,1.93-.28,2.69a18.86,18.86,0,0,1-8.84,3,5.52,5.52,0,0,0-4.4,2.09,5.51,5.51,0,0,1-4.88,2.12c1.87-5.23,2.78-4.33-3.08-5.29-1.87-.31-3.59-.28-5.1,1.17a5.05,5.05,0,0,1-3.36,1c2.31-6.67,2-7.9-3.44-11.66,3.08-1,5.38.19,7.62,1.74,1.09.75,9.08-.18,9.79-1.12.41-.54,0-1.05-.21-1.45C1156.83,547.61,1156.17,546.66,1155.33,545.31Z" transform="translate(0.44 -351.84)" />
	<path class="cls-1" d="M1119.88,514.7c2.5-6.41,2-8.11-3.4-11.53,3.07-1.2,5.34.08,7.56,1.59,1.17.78,8.94,0,9.77-1a1.24,1.24,0,0,0-.06-1.48c-.53-1-1.19-2-1.93-3.18a6.29,6.29,0,0,1,6.11,2.84,4.94,4.94,0,0,0,4.17,2.35,12.22,12.22,0,0,1,7.79,3.62c1.29,1.23,1.1,1.9-.22,2.68a19.43,19.43,0,0,1-8.82,3.06,5.54,5.54,0,0,0-4.44,2c-1.15,1.38-2.7,2.53-4.81,2.07,1.79-4.67,1.79-4.68-3.25-5.17-1.69-.16-3.37-.52-4.81,1A4.87,4.87,0,0,1,1119.88,514.7Z" transform="translate(0.44 -351.84)" />
	<path class="cls-1" d="M1104.56,513.72a6.35,6.35,0,0,1,6.4,3c1.12,1.85,2.46,2.08,4.25,2.21a12.27,12.27,0,0,1,7.51,3.5c1.44,1.3,1.26,2-.19,2.83a20.18,20.18,0,0,1-8.22,2.92,7,7,0,0,0-5.36,2.43,4.3,4.3,0,0,1-4.7,1.74c.29-.53.52-1,.79-1.46,1.52-2.54.53-3.46-2.15-3.52-2.52-.06-5.1-1-7.25,1.3a2.68,2.68,0,0,1-3,.43c1.08-2,2-3.94,1.46-6.32s-2.37-3.71-5.32-4.95a8.89,8.89,0,0,1,8.16,1.56c1.15.86,9.26.16,9.74-1C1107.48,516.49,1105.65,515.37,1104.56,513.72Z" transform="translate(0.44 -351.84)" />
	<path class="cls-1" d="M1193.45,569.85a12.52,12.52,0,0,1,.63-1.27c1.45-2.22,1.15-3.45-1.77-3.68-2.57-.2-5.12-.81-7.32,1.23-.76.7-1.77.61-3.23.74,1.19-2.34,2.15-4.33,1.52-6.7s-2.62-3.46-5-4.92a8.45,8.45,0,0,1,7.5,1.44c1.42,1,8.88.44,10-.68.62-.61.19-1.27,0-1.75-.52-1-1.23-2-2-3.14,2.7-.08,4.92.9,6.08,2.84s2.83,2.31,4.75,2.53a12.71,12.71,0,0,1,7.21,3.43c1.7,1.53,1,2.24-.44,3.07a19.27,19.27,0,0,1-8.25,2.81,6.4,6.4,0,0,0-5,2.35A4.58,4.58,0,0,1,1193.45,569.85Z" transform="translate(0.44 -351.84)" />
	<path class="cls-1" d="M1116.68,537.71a7.1,7.1,0,0,1,6.42,3.24,3.92,3.92,0,0,0,3.65,2,12.31,12.31,0,0,1,8.08,3.66c1.41,1.3,1,2-.26,2.65a19.5,19.5,0,0,1-8.17,3c-2.08.15-3.9.52-5.35,2.38a4.82,4.82,0,0,1-4.57,2c0-.24-.14-.47-.07-.6,2.11-4.1,2.11-4-2.3-4.58-2.27-.28-4.41-.74-6.29,1.24a3.07,3.07,0,0,1-3.22.64c1-2.09,2.27-4,1.47-6.6s-2.55-3.62-5-4.62c2.93-1.33,5.22-.29,7.44,1.11,1.63,1,8.74.58,10-.65.63-.6.29-1.21,0-1.74C1118.09,539.86,1117.48,539,1116.68,537.71Z" transform="translate(0.44 -351.84)" />
	<path class="cls-1" d="M1128.63,532.84c.13-4.32,2.27-7.2,6.93-8.79,8.6-2.93,16.47-.75,23.8,4,1.67,1.07,2.74,1.42,4.49.17a15.91,15.91,0,0,1,8.21-2.8c.53,0,1.17-.1,1.43.48.33.77-.28,1.14-.82,1.53-6.2,4.44-6.6,6.4-2.46,13,.72,1.15.72,1.73-.65,2.06-3,.71-7.8-1-9-3.74s-2.67-1.88-4.23-1a28.4,28.4,0,0,1-12.65,3.76,29.17,29.17,0,0,1-9.36-.79C1130.12,539.48,1128.49,537.21,1128.63,532.84Z" transform="translate(0.44 -351.84)" />
	<path class="cls-1" d="M2157.31,657a11.37,11.37,0,0,1-3.07-3.54,13.67,13.67,0,0,0-3.35-3.56,12.38,12.38,0,0,1-4.34-6.6,15.38,15.38,0,0,0-3-5.76,11.66,11.66,0,0,1-2.46-9.35,14.9,14.9,0,0,0-.08-6.57,3.79,3.79,0,0,1,1.44,3.24,32.53,32.53,0,0,1,.06,3.56,7.88,7.88,0,0,0,2.54,6.14,44.77,44.77,0,0,1,4.84,5.63,4.9,4.9,0,0,0,3,2.09c1.54.34,2.42-.38,2.36-2a7.44,7.44,0,0,0-1-3.24c-3.37-6.35-2.39-12.78-.32-19.21.08-.24.13-.59.61-.66a11.43,11.43,0,0,1,.25,3.91,23,23,0,0,0,.81,6.76c.53,1.56,1.34,2.93,3.15,3.23s3.12-.69,4.15-2.08a39.08,39.08,0,0,0,3-4.61,9.88,9.88,0,0,0,.85-8.17,22.42,22.42,0,0,1-1.23-6c0-.49-.25-1.23.43-1.41s.88.52,1.14,1a22.35,22.35,0,0,0,2.91,4.48c1.65,1.77,3,1.61,4.27-.43a9.28,9.28,0,0,0,1.11-6.31,53.14,53.14,0,0,1-.65-5.76,5.39,5.39,0,0,1,.47-2.45l.59.09c.54,2.61,1,5.23,1.64,7.83a14.11,14.11,0,0,1-.09,6.62,34,34,0,0,1-3.91,8.64,35.42,35.42,0,0,0-3,5.66c-.68,2,0,3.14,2,3.61,3.91.91,7.48-1.33,8.67-5.37a8.62,8.62,0,0,1,1.53-3.7,3.75,3.75,0,0,1,.42,2.35c.19,4.88-1.87,8.7-5.53,11.81-2.39,2-2.4,4.34-.16,6.66,1.92,2,3.8,1.88,6-.4.79-.82,1.47-1.74,2.22-2.61a17.49,17.49,0,0,1,1.31-1.41c.8-.74,1.56-.78,2.19.24l-.08.59a13.77,13.77,0,0,0-3,3.83c-1.68,3.58-4.67,4.89-8.47,4.75-1.48-.06-3-.12-4.44-.07a3.86,3.86,0,0,0-3.47,1.93,13.47,13.47,0,0,1-9.43,7Z" transform="translate(0.44 -351.84)" />
	<path class="cls-1" d="M2120.45,650.18a11.34,11.34,0,0,1-3.06-3.54,13.87,13.87,0,0,0-3.36-3.56,12.38,12.38,0,0,1-4.34-6.6,15.1,15.1,0,0,0-3-5.76,11.65,11.65,0,0,1-2.45-9.35,14.9,14.9,0,0,0-.08-6.57,3.78,3.78,0,0,1,1.43,3.24,30.22,30.22,0,0,1,.07,3.56,7.88,7.88,0,0,0,2.53,6.14,43.46,43.46,0,0,1,4.85,5.64,5,5,0,0,0,3,2.09c1.54.33,2.42-.39,2.37-2a7.44,7.44,0,0,0-1-3.24c-3.37-6.35-2.39-12.77-.33-19.21.08-.24.14-.59.62-.66.48,1.27.21,2.61.25,3.91a22.66,22.66,0,0,0,.81,6.76c.53,1.56,1.34,2.93,3.15,3.23s3.11-.69,4.14-2.08a37.86,37.86,0,0,0,3-4.61,9.88,9.88,0,0,0,.86-8.17,22.45,22.45,0,0,1-1.24-5.95c0-.5-.24-1.24.44-1.41s.88.51,1.14,1a22.75,22.75,0,0,0,2.9,4.48c1.66,1.77,3,1.61,4.28-.43a9.28,9.28,0,0,0,1.1-6.31,55.76,55.76,0,0,1-.65-5.76,5.67,5.67,0,0,1,.47-2.45l.59.09c.55,2.61,1.05,5.23,1.65,7.83a14,14,0,0,1-.1,6.63,34,34,0,0,1-3.9,8.64,33.39,33.39,0,0,0-3,5.65c-.68,2,0,3.14,2,3.61,3.9.91,7.47-1.33,8.67-5.37a8.62,8.62,0,0,1,1.53-3.7,3.67,3.67,0,0,1,.41,2.35c.2,4.89-1.87,8.7-5.52,11.81-2.4,2-2.4,4.34-.16,6.66,1.91,2,3.8,1.88,6-.4.79-.82,1.47-1.74,2.21-2.6a16.08,16.08,0,0,1,1.31-1.42c.8-.74,1.57-.78,2.2.24l-.09.59a13.55,13.55,0,0,0-3,3.83c-1.69,3.58-4.67,4.89-8.47,4.75-1.48-.06-3-.12-4.45-.07a3.85,3.85,0,0,0-3.46,1.93,13.42,13.42,0,0,1-9.43,7Z" transform="translate(0.44 -351.84)" />
	<path class="cls-1" d="M2181.55,657a11.34,11.34,0,0,1-3.06-3.54,13.71,13.71,0,0,0-3.36-3.56,12.38,12.38,0,0,1-4.34-6.6,15.1,15.1,0,0,0-3-5.76,11.65,11.65,0,0,1-2.45-9.35,14.9,14.9,0,0,0-.08-6.57,3.78,3.78,0,0,1,1.43,3.24,30.22,30.22,0,0,1,.07,3.56,7.88,7.88,0,0,0,2.53,6.14,44,44,0,0,1,4.85,5.63,4.88,4.88,0,0,0,3,2.09c1.54.34,2.42-.38,2.37-2a7.44,7.44,0,0,0-1-3.24c-3.37-6.35-2.39-12.78-.32-19.21.07-.24.13-.59.61-.66.48,1.27.21,2.61.25,3.91a22.66,22.66,0,0,0,.81,6.76c.53,1.56,1.34,2.93,3.15,3.23s3.11-.69,4.14-2.08a37.86,37.86,0,0,0,3-4.61,9.85,9.85,0,0,0,.86-8.17,22.44,22.44,0,0,1-1.24-6c0-.49-.24-1.23.44-1.41s.88.52,1.14,1a22.75,22.75,0,0,0,2.9,4.48c1.66,1.77,3,1.61,4.28-.43a9.28,9.28,0,0,0,1.11-6.31,50.75,50.75,0,0,1-.65-5.76,5.39,5.39,0,0,1,.47-2.45l.59.09c.54,2.61,1,5.23,1.64,7.83a14,14,0,0,1-.1,6.62,33.65,33.65,0,0,1-3.9,8.64,33.87,33.87,0,0,0-3,5.66c-.68,2,0,3.14,2,3.61,3.9.91,7.48-1.33,8.67-5.37a8.62,8.62,0,0,1,1.53-3.7,3.75,3.75,0,0,1,.42,2.35c.19,4.88-1.87,8.7-5.53,11.81-2.39,2-2.4,4.34-.16,6.66,1.91,2,3.8,1.88,6-.4.79-.82,1.47-1.74,2.21-2.61a17.49,17.49,0,0,1,1.31-1.41c.8-.74,1.57-.78,2.2.24l-.09.59a13.55,13.55,0,0,0-3,3.83c-1.69,3.58-4.67,4.89-8.47,4.75-1.48-.06-3-.12-4.44-.07a3.86,3.86,0,0,0-3.47,1.93,13.47,13.47,0,0,1-9.43,7Z" transform="translate(0.44 -351.84)" />
	<path class="cls-1" d="M2133.06,673.46a11.73,11.73,0,0,1-3.07-3.54,13.51,13.51,0,0,0-3.35-3.56,12.38,12.38,0,0,1-4.34-6.6,15,15,0,0,0-3-5.76,11.63,11.63,0,0,1-2.45-9.36,14.87,14.87,0,0,0-.09-6.56,3.78,3.78,0,0,1,1.44,3.23,30.39,30.39,0,0,1,.07,3.57,7.89,7.89,0,0,0,2.53,6.14,44,44,0,0,1,4.85,5.63,4.89,4.89,0,0,0,3,2.09c1.54.33,2.42-.38,2.36-2a7.52,7.52,0,0,0-1-3.25c-3.36-6.34-2.38-12.77-.32-19.2.08-.25.14-.59.61-.66.49,1.27.22,2.61.26,3.91a22.34,22.34,0,0,0,.81,6.76c.53,1.56,1.34,2.93,3.14,3.23s3.12-.69,4.15-2.08a39.93,39.93,0,0,0,3-4.61,10,10,0,0,0,.86-8.18,22,22,0,0,1-1.24-6c0-.49-.24-1.23.43-1.41s.88.52,1.15,1a22.53,22.53,0,0,0,2.9,4.49c1.65,1.77,3,1.61,4.28-.43a9.35,9.35,0,0,0,1.1-6.32,55.27,55.27,0,0,1-.65-5.75,5.67,5.67,0,0,1,.47-2.45l.59.09c.55,2.61,1.05,5.23,1.64,7.83a13.85,13.85,0,0,1-.09,6.62,33.8,33.8,0,0,1-3.9,8.64,33.87,33.87,0,0,0-3,5.66c-.68,2,0,3.13,2,3.61,3.9.9,7.47-1.33,8.66-5.37a8.63,8.63,0,0,1,1.54-3.7,3.73,3.73,0,0,1,.41,2.35c.19,4.88-1.87,8.69-5.52,11.8-2.4,2-2.4,4.34-.16,6.67,1.91,2,3.79,1.88,6-.4.79-.82,1.47-1.74,2.21-2.61a17.62,17.62,0,0,1,1.31-1.42c.8-.73,1.57-.78,2.2.24l-.09.59a13.74,13.74,0,0,0-3,3.84c-1.69,3.58-4.67,4.89-8.47,4.74-1.48,0-3-.11-4.45-.06a3.84,3.84,0,0,0-3.47,1.93,13.44,13.44,0,0,1-9.42,7Z" transform="translate(0.44 -351.84)" />
	<path class="cls-1" d="M2091.36,627.88a11.39,11.39,0,0,1-3.07-3.55,14,14,0,0,0-3.35-3.56,12.3,12.3,0,0,1-4.34-6.59,15.35,15.35,0,0,0-3-5.77,11.66,11.66,0,0,1-2.46-9.35,14.86,14.86,0,0,0-.08-6.56,3.76,3.76,0,0,1,1.44,3.23,32.68,32.68,0,0,1,.06,3.57,7.86,7.86,0,0,0,2.53,6.13,43.46,43.46,0,0,1,4.85,5.64,5,5,0,0,0,3,2.09c1.53.33,2.41-.38,2.36-2a7.48,7.48,0,0,0-1-3.24c-3.37-6.35-2.39-12.77-.32-19.21.08-.24.13-.59.61-.66.48,1.28.21,2.61.25,3.91a23,23,0,0,0,.81,6.76c.53,1.56,1.34,2.94,3.15,3.24s3.12-.7,4.15-2.08a40,40,0,0,0,3-4.62,9.88,9.88,0,0,0,.85-8.17,22.85,22.85,0,0,1-1.24-6c0-.5-.24-1.24.44-1.41s.88.52,1.14,1a22.42,22.42,0,0,0,2.91,4.49c1.65,1.77,3,1.61,4.27-.44a9.27,9.27,0,0,0,1.11-6.31,52.86,52.86,0,0,1-.65-5.76,5.39,5.39,0,0,1,.47-2.45l.59.09c.54,2.61,1,5.24,1.64,7.84a14.11,14.11,0,0,1-.09,6.62,34.34,34.34,0,0,1-3.91,8.64,35.32,35.32,0,0,0-3,5.65c-.68,2,0,3.14,2,3.62,3.91.9,7.48-1.34,8.67-5.38a8.58,8.58,0,0,1,1.53-3.69,3.74,3.74,0,0,1,.42,2.35c.19,4.88-1.87,8.69-5.53,11.8-2.39,2-2.4,4.34-.16,6.66,1.92,2,3.8,1.89,6-.39.79-.82,1.47-1.75,2.22-2.61a16,16,0,0,1,1.31-1.42c.8-.73,1.56-.78,2.19.24l-.08.59a14.07,14.07,0,0,0-3,3.83c-1.68,3.58-4.67,4.9-8.47,4.75-1.48-.06-3-.12-4.44-.06a3.83,3.83,0,0,0-3.47,1.92,13.42,13.42,0,0,1-9.43,7Z" transform="translate(0.44 -351.84)" />
	<g id="tofPmu.tif">
		<path class="cls-1" d="M1752.91,586.62c-1.27,13.81,3.35,26.37,8.17,38.81a96.73,96.73,0,0,1,4.24,56.62c-.32,1.45-.47,2.94-.71,4.51,8.58-2,13.83-8.42,14-17,.15-7.34-1.91-14.39-3-21.57-1.86-12.41.45-23.31,11.15-31.24.45.64-.2,1-.5,1.3-8.56,8.56-9.67,18.78-6.59,29.86,1.3,4.7,3,9.3,4.32,14a28.12,28.12,0,0,1,0,15.75c-.34,1.21-.59,2.45-1,4.14,5.48-3,9.83-6.6,12.54-11.73,3.61-6.82,5.79-14.16,5-21.9-.51-5.24,1.28-9.27,4.65-13-.57,1.23-1.14,2.45-1.69,3.69a13.08,13.08,0,0,0-1,7.57c3.25,21.29-4.47,34.22-19.56,43.46-8.62,5.27-18,8.53-27.71,11-8.91,2.3-20.11-4.16-24.26-13.71a5.3,5.3,0,0,0-4.88-3.7c-9.9-1.18-16.86-7.53-19.18-17.21-1-4.18-3.51-7.58-5.44-11.32,3.42,3.28,6.36,6.86,8,11.41a18.71,18.71,0,0,0,16.79,11.86c1.24,0,2.16,0,1.89-1.71-.76-4.65-.17-9.32-.14-14,0-7.24-1.45-14-6.66-19.43,7.42,5.6,10.29,13.37,10.8,22.26a65.38,65.38,0,0,0,1.3,9.66c.36,1.76,1,2,2.67,1.44,5.43-1.91,10.83-2.32,16.26,1.57a50.89,50.89,0,0,0-7.57-22c-2.88-4.59-6.13-9-9.15-13.46-3.73-5.58-6.22-11.61-6.45-18.44,1.68,7.47,5.58,13.69,10.79,19.14,7.69,8,14.77,16.51,18.67,28.21a73.36,73.36,0,0,0,2-23.58c-.89-11.88-4.64-23.16-7.19-34.69-1.88-8.55-2.73-17.14-1-25.83A4.46,4.46,0,0,1,1752.91,586.62ZM1740.2,683c-2.52,0-3.11.49-2.12,1.94,2.39,3.51,5.53,5.95,9.89,6.6,1.88.28,2.36-.19,1.71-2A10,10,0,0,0,1740.2,683Z" transform="translate(0.44 -351.84)" />
	</g>
	<path class="cls-1" d="M1699.42,668l10.06,16.6a1.64,1.64,0,0,1-.56,2.29,1.92,1.92,0,0,1-.25.12c-1.22.54-1.54-1-2.61-.34a1.16,1.16,0,0,0-.21.16h0c-.78.71.11,1.85-1.21,2.65a1.62,1.62,0,0,1-.35.17c-1.22.46-2-.69-2.79-.21a.91.91,0,0,0-.24.2c-.52.65-.14,2-.9,2.44a1.13,1.13,0,0,1-.84.12,2.52,2.52,0,0,1-1-.57l-10-16.55c-3.11-5.13-3.23-6.62-1.87-8.23,1.2-1.41-.29-3.3-.67-3.73a.14.14,0,0,1,0-.19c.54-.56,3.29-3.36,4-2.36s.95,1.61,2.08,2a5.45,5.45,0,0,0,1.18.27C1695.3,663.14,1696.16,662.62,1699.42,668Z" transform="translate(0.44 -351.84)" />
	<rect class="cls-3" x="1685.68" y="662.24" width="5.67" height="0.67" rx="0.07" transform="translate(-98.36 619.86) rotate(-31.24)" />
	<path class="cls-3" d="M1690.8,660.41l-5.25,3.18a.1.1,0,0,1-.14,0l-1.62-2.67a.45.45,0,0,1,.15-.61l4.66-2.83a.45.45,0,0,1,.61.15l1.62,2.67a.1.1,0,0,1,0,.14Z" transform="translate(0.44 -351.84)" />
	<path class="cls-4" d="M1688.11,666.72a3.78,3.78,0,0,0-1.13,2.64,2.92,2.92,0,0,0,.41,1.31c2,3.6,10,16.48,10.2,16.83l.52.86c.17.34.2.48.35.57a.93.93,0,0,0,1-.24c.49-.61-.53-2.21-1-2.91-4.7-7.21-7.67-11.77-9.4-16.15A29.3,29.3,0,0,1,1688.11,666.72Z" transform="translate(0.44 -351.84)" />
	<path class="cls-5" d="M1685.9,663.38s-1.92-2.82-1.41-2.33a16.17,16.17,0,0,1,1.5,2.28Z" transform="translate(0.44 -351.84)" />
	<path class="cls-5" d="M1690.25,660.74s-1.92-2.82-1.42-2.33a15.3,15.3,0,0,1,1.5,2.28Z" transform="translate(0.44 -351.84)" />
	<path class="cls-5" d="M1689.64,661.11s-2-2.77-1.42-2.33a9.85,9.85,0,0,1,1.55,2.25Z" transform="translate(0.44 -351.84)" />
	<path class="cls-5" d="M1687.05,662.68s-1.54-3-1.41-2.33a10.31,10.31,0,0,0,1.29,2.41Z" transform="translate(0.44 -351.84)" />
	<path class="cls-5" d="M1689,661.5s-1.61-3-1.41-2.33a15.23,15.23,0,0,0,1.33,2.38Z" transform="translate(0.44 -351.84)" />
	<path class="cls-5" d="M1686.4,663.08a15.31,15.31,0,0,1-1.37-2.46,16.66,16.66,0,0,1,1.46,2.41Z" transform="translate(0.44 -351.84)" />
	<path class="cls-5" d="M1688.19,662s-1.6-2.49-1.36-2.47a13.36,13.36,0,0,1,1.46,2.41Z" transform="translate(0.44 -351.84)" />
	<path class="cls-5" d="M1687.57,662.37s-1.6-2.49-1.36-2.47a14,14,0,0,1,1.46,2.41Z" transform="translate(0.44 -351.84)" />
	<path class="cls-6" d="M1684.65,660.26a.4.4,0,0,0-.25.3.71.71,0,0,0,.12.45,7.56,7.56,0,0,0,.52.86c.15.2.49,0,.34-.21a5,5,0,0,1-.35-.58l-.18-.29-.07-.11v0C1685,660.53,1684.89,660.17,1684.65,660.26Z" transform="translate(0.44 -351.84)" />
	<path class="cls-4" d="M1692.36,664c-.93.46-1.08.68-1,.81s.6.06,1.38.49a3.28,3.28,0,0,0,.85.44c.17,0,.62.13.82-.09s0-1.31-.52-1.46c-.25-.09-.41.08-.86,0A1.69,1.69,0,0,1,1692.36,664Z" transform="translate(0.44 -351.84)" />
	<path class="cls-7" d="M1699.42,668l10.06,16.6a1.64,1.64,0,0,1-.56,2.29,1.92,1.92,0,0,1-.25.12s.17-1.38-.12-1.76-12.55-20-13.24-20.82a7.85,7.85,0,0,0-2.86-1.48,1,1,0,0,1-.45-.35,5.45,5.45,0,0,0,1.18.27C1695.3,663.14,1696.16,662.62,1699.42,668Z" transform="translate(0.44 -351.84)" />
	<path class="cls-7" d="M1705.84,686.82c-.77.72.12,1.85-1.2,2.65a1.62,1.62,0,0,1-.35.17c0-.4.19-1.09.17-1.69S1705.39,686.93,1705.84,686.82Z" transform="translate(0.44 -351.84)" />
	<path class="cls-7" d="M1701.26,689.63c-.52.65-.14,2-.9,2.43a1.12,1.12,0,0,1-.84.12,8.34,8.34,0,0,1,.8-2.06C1700.48,689.73,1701,689.67,1701.26,689.63Z" transform="translate(0.44 -351.84)" />
	<path class="cls-1" d="M777.29,443.76,763,456.83a1.64,1.64,0,0,1-2.36-.1,1.84,1.84,0,0,1-.17-.22c-.76-1.09.67-1.71-.17-2.63a1.12,1.12,0,0,0-.2-.18h0c-.85-.62-1.79.47-2.83-.67a2.34,2.34,0,0,1-.24-.31c-.69-1.11.29-2.11-.33-2.78a.91.91,0,0,0-.24-.2c-.74-.38-2,.25-2.57-.41a1.12,1.12,0,0,1-.27-.8,2.28,2.28,0,0,1,.36-1.08l14.3-13c4.43-4.05,5.87-4.46,7.71-3.43,1.62.91,3.18-.93,3.53-1.38a.14.14,0,0,1,.19,0c.66.41,3.93,2.57,3.09,3.43a4.18,4.18,0,0,0-1.59,2.44,5.45,5.45,0,0,0,0,1.21C781.26,438.78,781.94,439.52,777.29,443.76Z" transform="translate(0.44 -351.84)" />
	<rect class="cls-3" x="780.18" y="429.18" width="0.67" height="5.67" rx="0.07" transform="translate(-86.85 286.96) rotate(-42.37)" />
	<path class="cls-3" d="M783.07,433.84l-4.14-4.53a.12.12,0,0,1,0-.15l2.31-2.1a.44.44,0,0,1,.63,0l3.67,4a.45.45,0,0,1,0,.63l-2.31,2.1a.1.1,0,0,1-.14,0Z" transform="translate(0.44 -351.84)" />
	<path class="cls-4" d="M776.36,432.42a3.79,3.79,0,0,0-2.81-.6,3,3,0,0,0-1.21.65c-3.14,2.69-14.24,13-14.54,13.27l-.74.67c-.3.23-.43.28-.49.45a.92.92,0,0,0,.43,1c.69.37,2.07-.95,2.66-1.53,6.17-6,10.07-9.8,14-12.34A27.09,27.09,0,0,1,776.36,432.42Z" transform="translate(0.44 -351.84)" />
	<path class="cls-5" d="M779.21,429.61s2.4-2.43,2-1.84a15.52,15.52,0,0,1-1.94,1.91Z" transform="translate(0.44 -351.84)" />
	<path class="cls-5" d="M782.64,433.36s2.39-2.43,2-1.84a14.74,14.74,0,0,1-1.95,1.91Z" transform="translate(0.44 -351.84)" />
	<path class="cls-5" d="M782.16,432.83s2.33-2.5,2-1.83a9.72,9.72,0,0,1-1.91,1.95Z" transform="translate(0.44 -351.84)" />
	<path class="cls-5" d="M780.12,430.6s2.7-2.1,2-1.84a10.8,10.8,0,0,0-2.11,1.73Z" transform="translate(0.44 -351.84)" />
	<path class="cls-5" d="M781.65,432.28s2.64-2.17,2-1.84a16,16,0,0,0-2.08,1.77Z" transform="translate(0.44 -351.84)" />
	<path class="cls-5" d="M779.6,430s2.15-2.05,2.15-1.82a16.18,16.18,0,0,1-2.08,1.89Z" transform="translate(0.44 -351.84)" />
	<path class="cls-5" d="M781,431.58s2.14-2.05,2.16-1.81-2.08,1.9-2.08,1.9Z" transform="translate(0.44 -351.84)" />
	<path class="cls-5" d="M780.52,431s2.14-2.05,2.16-1.8-2.08,1.89-2.08,1.89Z" transform="translate(0.44 -351.84)" />
	<path class="cls-6" d="M782,427.78a.39.39,0,0,0-.34-.19.78.78,0,0,0-.43.2c-.25.21-.5.44-.73.67s.09.49.27.3.32-.31.5-.46l.25-.23.1-.08,0,0C781.83,428.17,782.17,428,782,427.78Z" transform="translate(0.44 -351.84)" />
	<path class="cls-4" d="M779.83,436.07c-.63-.83-.88-.93-1-.88s0,.61-.22,1.46a2.61,2.61,0,0,0-.26.91c0,.17,0,.63.24.79s1.28-.27,1.33-.8c0-.26-.16-.38-.18-.84A1.55,1.55,0,0,1,779.83,436.07Z" transform="translate(0.44 -351.84)" />
	<path class="cls-7" d="M777.29,443.76,763,456.83a1.64,1.64,0,0,1-2.36-.1,1.84,1.84,0,0,1-.17-.22s1.39-.1,1.7-.46,17.26-16.18,17.88-17a7.86,7.86,0,0,0,.9-3.09.93.93,0,0,1,.26-.51,5.45,5.45,0,0,0,0,1.21C781.26,438.78,781.94,439.52,777.29,443.76Z" transform="translate(0.44 -351.84)" />
	<path class="cls-7" d="M760.06,453.7c-.85-.62-1.79.47-2.83-.67a2.34,2.34,0,0,1-.24-.31c.4-.08,1.11,0,1.7-.16S759.87,453.27,760.06,453.7Z" transform="translate(0.44 -351.84)" />
	<path class="cls-7" d="M756.42,449.74c-.73-.38-2,.25-2.56-.41a1.08,1.08,0,0,1-.28-.8,8.06,8.06,0,0,1,2.18.39C756.17,449,756.32,449.47,756.42,449.74Z" transform="translate(0.44 -351.84)" />
</svg>
